<svg id="Calque_1" data-name="Calque 1" xmlns="http://www.w3.org/2000/svg" viewBox="0 0 2160 3243.75"><path d="M0,3104.05c3.93,1.21,6.67.39,6.81-4.28.12-4.28,0-8.56,0-14.25,23-.42,45.1.09,68-.32.52-5.54,1-10.35,1.52-16.3H146.9c.44-5.63.8-10.16,1.26-15.92,11.19-.91,22.39-.31,33.55-.42,10.93-.1,21.87,0,33.62,0,.49-5.72.91-10.5,1.41-16.36h34.57c.43-5.58.78-10.11,1.25-16.11h34.62c.49-6,.86-10.48,1.35-16.43h34.71c.39-5.53.73-10.32,1.11-15.64l15.45-1.56c.31-5,.59-9.58.94-15.3h35v-18.92l16.28-1.7c.35-4.93.69-9.5,1.08-14.92l18.41-1.43c.43-5,.84-9.83,1.34-15.71h34.6c.42-5.62.77-10.15,1.18-15.63l15.14-1.28c.42-4.86.8-9.38,1.25-14.62,11.23-2.76,23,.46,34.83-2,.37-4.79.72-9.32,1.15-15h34.7c.41-5.88.75-10.66,1.12-16l15.27-1.37c.39-5,.75-9.56,1.2-15.27l34.66-.93c.51-5.53.92-10.06,1.44-15.78H624.3v-35.29h31.15v33.19l-15.35,1.46v31.25l-15.75,1.19V2869l15.1,1.21v80.3l16.61,1.53v34.54h37.07c.73-27.93-.06-55.69.45-83.89h17.67v47.78l16,1.48v33.26l-13.7,1.09c-2.45,7-2.94,37.15-.72,49.2l14.43,1.19,1.23,15.07,15.08,1.44c.42,5,.81,9.49,1.28,15l18.32,1.09c.47,5.14.91,9.93,1.44,15.78H799.2c.37,6.57.69,12.1,1,18.31,10.21,3.45,21.1-.48,31.55,2.46.38,4.78.74,9.34,1.16,14.64h19.87c.41-4.84.81-9.65,1.32-15.67h191.63v-19.19c17.67-.73,34.49.05,52-.49.51-5.59,1-10.38,1.5-16.37h70.42c.48-5.71.86-10.24,1.34-15.93h34.56c.5-5.85.91-10.63,1.41-16.5h34.61c.44-5.55.79-10.06,1.25-16l31.44-1c.45-5.34.84-9.9,1.29-15.19L1294,3003c.36-5.06.68-9.6,1.1-15.56h34.84c.43-5.94.76-10.51,1.14-15.88l15.16-1.56c.45-6.22.88-12,1.36-18.67h34.37c.53-5.51,1-10.28,1.52-15.66l15.78-1.79v-31.19l18.7-1.07c.51-5.08,1-9.87,1.54-15.24l15.08-1.08c1.75-15.83-.17-31.72,1.14-47.94l15.23-1.29c.45-5.25.84-9.81,1.29-15.09l18.31-1.11v-85.14l-18.26-1.09v-30h16.87c.42,4.7.85,9.51,1.34,15l15,1c.42,4.86.83,9.67,1.32,15.27l18.32,1.17c.38,4.84.74,9.38,1.18,15l15.19,1.29c.38,4.78.74,9.31,1.14,14.47,7.68,2.59,15.67,1,23.49,1.25,7.65.27,15.32.06,23,.06h24.22c.44,5.52.8,10,1.28,16,22.24.8,44.39,0,67.14.49.44,5.2.82,9.7,1.25,14.74,11.39,3.46,23.22-.37,34.91,2.41.33,5.7.64,11.27,1,17.73,11.55,2.2,23.22-.16,34.84,1.47.42,5.14.8,9.69,1.27,15.28,5.92.17,11.46.38,17,.46s11.24,0,17.42,0c.59,5.59,1.1,10.38,1.73,16.22h31.22c.56,5.89,1,10.72,1.59,16.63h34.33c.56,5.65,1,10.2,1.58,15.85h34.2c.68,5.89,1.23,10.71,1.9,16.47h50.41c.65,5.75,1.19,10.56,1.85,16.37h50.59c.47,5.53.86,10,1.29,15.14,7.75,2.68,15.76,1,23.59,1.31,7.65.28,15.32.06,23,.06h24.08c.49,5.74.88,10.28,1.38,16.1,17.38.89,34.58.27,51.75.38,16.93.12,33.86,0,52.23,0,0,5.34,0,9.88,0,14.41,0,2.5.42,4.79,3.85,4.27V4096H0Z" transform="translate(0 -852.25)"/><path d="M691.36,1764.46c.42,5.93.74,10.49,1.14,16.15,23.35,1.45,46.54.42,69.7.62,22.93.18,45.86,0,70.06,0v32.36h35.29l1.36,15.83,18.3,1.17v17H801.84c-.4-5.78-.8-11.57-1.19-17.16-8-2.24-114.51-2.49-124.76-.24v17.34c-12.32,1.56-23.88.56-35.37.74s-23.25,0-35.8,0c-2,9.72-.8,19-1,28.11-.22,9.67-.05,19.34-.05,29v56.41l-16.28,1.81v67.27h-17.5c-.49-4.86-1-9.66-1.53-15.14l-15.25-1.21v-31.39L537,1981.72c-.41-6.14-.79-12-1.23-18.73H517.13c-.93-22,.16-43.12-.66-64.77l-15.25-1.34c-.49-4.83-1-9.61-1.58-15.57h-35v-84.4l-15.94-1.41c-.38-5-.72-9.52-1.14-15.13l-18.9-1v-31.22L412,1746.23v-31.84H376.82v-17.82h34.36c2.09-11,.28-21.33,1.39-32.23l15.22-1.47v-49.08l-15.48-1.3V1581l-19.7-1.36V1544.5H359.88v-48.36h-36.7c-.4,4.92-.8,9.74-1.24,15.08H305.15v-30.48h34.38c.48-5.85.87-10.63,1.31-16.08l18.39-1.15c.39-5,.74-9.56,1.17-15.08l15.16-1.28c.38-4.86.74-9.38,1.17-14.93l15-1.31v-36.14l-14.81-1.2V1380l15.36-1.48v-31.33l19.24-1.39c.38-5.09.71-9.63,1.13-15.28h34.74c.29-6.15.53-11.25.83-17.55l-18.09-1c-2-7.52-2.4-103.82-.46-115.27l18.12-1.21v-31.05h15.5v31.11H480c.55-5.09,1.06-9.89,1.64-15.26l18.08-1c.45-5,.88-9.73,1.36-15.07l14.3-1.22c2.87-8.59,1-17.25,1.37-25.73.32-8.26.07-16.55.07-25.43l19.22-1.17v-31.41l16-1.45c.46-5.06.9-9.87,1.39-15.18l15.14-1.08c1.44-11.27.46-22.5.64-33.65.18-11,0-21.91,0-33.7l18.63-1.2c.58-5.23,1.11-10,1.69-15.26H603c.49,5.09,1,9.89,1.46,15.16H624c.39-5.17.73-9.72,1.12-14.83l15.2-1.68c.37-5,.72-9.55,1.11-14.85h14.08c.36,4.9.69,9.46,1,13.89,7.16,2.24,42.76,2.74,55.64.7.39-4.53.81-9.33,1.28-14.66l15.66-1.57V928.27h52.31V879.11h51.86c.37-6.94.66-12.5,1-18.79h17.37c.28,5.79.55,11.34.87,17.88h16.8c.31-6,.59-11.52.91-17.85h17.3c.38,5.93.76,11.75,1.22,18.75H920c.43,5.74.78,10.27,1.18,15.59H941.1V860c4.93-.18,8.76-.39,12.59-.44,5.33-.07,10.66-.08,16,0,4.69.08,9.28.19,8.22-6.89h13.45c.83,5.26,3.83,7.58,9.53,7,5.09-.51,10.63.7,10.16-7.15h32.24c2.74,12.24,13.36,4.45,20.53,8.33.35,5.28.73,11.1,1.16,17.56l15.1,1.27c.38,4.61.78,9.41,1.25,15l15.18,1.44c.45,4.82.87,9.38,1.37,14.74h36c.39-5,.74-9.54,1.14-14.71h33.39c.46,4.77.89,9.32,1.4,14.69h16.06c.58-5,1.15-9.78,1.75-14.93h16.76c.44,4.93.85,9.48,1.24,13.86,7.24,2.33,40.41,2.78,52.2.71.54-4.61,1.1-9.42,1.7-14.49h13.58c.4,5,.76,9.56,1.18,14.89h19.54c.49-4.78,1-9.56,1.51-14.79l14.71-1.24c.57-5.1,1.11-9.9,1.71-15.18h49.44c.53,5.11,1,9.9,1.57,15.14h19.54c.33-5.19.62-9.75,1-15l15.58-1.41c.32-6.09.64-11.91,1-18.3h17.44c.08,13.9.18,27.75.22,41.6,0,13.62,0,27.24,0,42.19h31.93c.49,5.75.88,10.25,1.26,14.66,7.21,2.71,10,2.82,20,.66.3-4.32.61-8.87,1-14.12h14v30l-15,1.29v16.49l15,1.17c.35,5.78.7,11.6,1.12,18.54l18.78,1v47.68l16.62,1.32V1094h36.67c.45-5,.89-9.79,1.37-15.06h13.48c.44,5,.83,9.52,1.31,15.1l18.35,1.16v14.14l-18.36.94v36.44H1610v32.14l15.94,1.53c.39,5,.74,9.52,1.17,15.1l18.34,1c.51,5.06,1,9.87,1.53,15.3l14.63,1.17c.56,5,1.11,9.76,1.72,15.18l18.69,1.24v67.49l17.23.76c.37-6.6.7-12.43,1.1-19.54,16.59-.62,33-.22,49.86-.3v18h-34.6v17.6h34.27c1.46,10.91.53,20.7.82,31l-15.38,1.32v16.22h16.2c.36-4.85.7-9.39,1.09-14.71h17.06V1446h-33.85c-3,11.12-.12,21.54-2.2,32.45l-18.11,1.3v16.56l18.06.81v14.19l-16.71.87c-2.55,7-3.18,72.85-.78,85.17h19.07c.44-4.94.88-9.75,1.35-15h14.18v80.59l19.08,1.2v13.64l-18.41,1.2c-.39,5.19-.73,9.73-1.11,14.84-2.27.3-4.48.74-6.7.85-2,.1-4-.16-7-.31-.41-4.84-.82-9.64-1.29-15.2h-20.1v51.51h-32.34v17l14.88,1.39v13.56l-14.83,1.66v32.55l14.68,1.3v13.68l-14.67,1.14c-.41,5-.8,9.83-1.24,15.16l-18.51,1.22v19.82l18.41,1.17v13.75l-18.42,1.18c-1.6,15.87.1,31.47-1.1,47.81l-15.51,1.51v47.48l-19.22,1.29v19.88l18.19,1v14.21h-51.32v32.32l-19.85,1.34v31.46h-14.23c-.4-5-.76-9.55-1.2-15.17l-18.87-1.08v-64c-3.43-.45-5.65-.85-7.88-1s-4.63,0-8.33,0c-.64-22.54.09-44.7-.45-67.78l-16.36-1.32v-64.41l-18.72-.84c-.43-6.09-.83-11.9-1.34-19h-51c-.51-5.87-.9-10.4-1.28-14.76-7.47-2.22-76.85-2.67-88.6-.54-.27,4.32-.55,8.86-.82,13.4-6.67,2.09-91.45,2.53-102.48.48v-13l15.08-1.25c.46-4.84.92-9.63,1.44-15l15.14-1.27v-32c17.45-.07,33.63-.15,49.81-.18s32.66,0,49,0h97.27c.42-5.86.74-10.41,1.11-15.61l15.25-1.43v-16.41l-15.62-1.22c-.13-12.12,0-24.33-.06-36.53s0-24.67,0-37V1545l-19-1.1c-.39-5.09-.74-9.63-1.16-15.06l-15.14-1.22c-.45-5.22-.87-10-1.33-15.24l-14.94-.95c-.55-5-1.08-9.86-1.69-15.48l-18.23-.85v-31c-12.46-3.08-24.2,0-35.79-2.16-.39-5-.74-9.5-1.14-14.78l-15.19-1.46c-.46-4.86-.9-9.43-1.41-14.74l-15-1.54c-.45-6.22-.87-12-1.36-18.77h-53.89c-.39-3.42-.67-6-1-8.5-.27-2.26-.55-4.52-1-8h-31.09c-.43-5.75-.78-10.28-1.21-16-23.84-.58-47.31-.2-71.64-.26-.59,5.58-1.11,10.36-1.74,16.28h-34.4c-.48,5.64-.86,10.17-1.24,14.56-7.58,2.06-126.6,2.48-138.21.47-.35-4.35-.71-8.89-1.13-14.21H957.12c-.35,4.87-.69,9.43-1.12,15.3H869c-.45,7.07-.82,12.9-1.23,19.28l-14.93,1.15c-.43,5-.85,9.77-1.32,15.07H834.25V1411a219.34,219.34,0,0,0-34.39-.16v35.5h-55c-.43,5.73-.77,10.28-1.16,15.51l-15.24,1.57c-.32,4.86-.61,9.41-1,14.88l-15.63,1.6v31.25l-19.26,1.25c-.38,5-.72,9.53-1.14,15L676,1528.77v50.85l-19.65,1.27v64.19c-3.47.32-5.69.54-7.91.71s-4.61.29-8.12.51c-.25,5.23-.5,10.33-.8,16.49l15.87,1.36v30l-15.57,1.31c-.42,22.77-.14,45.19-.15,69ZM1045.51,911.2V894.74h-16.4V911.2Z" transform="translate(0 -852.25)"/><path d="M1331.35,2736.23H1345v29.69l-15.87,1.8V2799l-19,1.07c-.33,6.11-.64,11.92-1,18.24l-15.9,1.84V2852H1258c-.46,5.57-.83,10.11-1.25,15.28l-15.1,1.7c-.42,4.91-.8,9.45-1.25,14.75l-18.16,1.26c-.6,5.26-1.15,10.08-1.82,15.93H1186.1c-.45,5.65-.8,10.21-1.26,16h-67.3c-.6,6-1.09,10.77-1.61,16h-16.76c-.4-4.8-.78-9.33-1.25-15.07l-16.3-.81c-.56,5.68-1,10.46-1.55,15.8H958.57c-.4-4.81-.79-9.31-1.26-15-16.76-2-33.68.34-51-1.37-.36-4.92-.68-9.47-1.09-15.13l-15-1.31c-.48-4.87-1-9.68-1.52-15.57H854.24c-.45-5.59-.81-10.1-1.27-15.81l-18.46-1.05c-.43-4.9-.84-9.69-1.32-15.24l-15-1.16c-.37-4.72-.75-9.5-1.21-15.26l-15.2-1v-33.59h30.05c.34,6.16.65,11.72,1,18.36l18.53,1.13c.42,4.73.81,9.24,1.31,14.84,11.12,2.57,22.84-.31,34.85,1.79.33,4.7.64,9.23,1,14.72,10,2.23,20.37.08,31.24,1.43.46,4.85.91,9.62,1.45,15.33l18.3,1.06c.41,4.94.79,9.48,1.29,15.49,11.23.08,22.4.19,33.58.23,11,0,21.92,0,33.67,0,.49,5.28.93,10.07,1.44,15.58h19.62c.43-4.85.85-9.65,1.38-15.66h139.22c.42-5.76.76-10.3,1.18-15.95h34.74c.41-5.87.75-10.66,1.16-16.5h35v-32.68h32.77v-35.88h35.93v-32.22l19.17-1.32C1330.27,2745.94,1330.8,2741.12,1331.35,2736.23Z" transform="translate(0 -852.25)"/><path d="M1450.15,1981.68h-50.37v-16.93l18.25-1.2v-16.9H1383.8c-.64-5.56-1.18-10.35-1.8-15.8h-19.43c-.37,4.8-.71,9.31-1.13,14.84l-15.39,1.28c-.25,4.86-.49,9.39-.79,15.09l-15.3,1.2c-.41,6-.82,11.75-1.27,18.29H1311.5c-.41-6-.81-11.86-1.29-18.83h-34.69v-63.33H1309c.38,5,.73,9.5,1.1,14.4,6.6,2.44,13,1.92,19.87.31.34-4.79.66-9.35,1-14.6h14c.38,5.12.72,9.66,1.15,15.54h51c.44,5.86.77,10.41,1.18,16H1433c.56,5.78,1,10.57,1.56,16.09l15.18,1.2c.15,5.47.36,11,.44,16.49C1450.21,1970.13,1450.15,1975.41,1450.15,1981.68Z" transform="translate(0 -852.25)"/><path d="M728.86,1930.82c.31-5.32.56-9.59.81-13.8,6.82-2.13,85.56-2.86,101.93-.9V1962l-15,1.49c-.31,6-.6,11.57-.88,17-7.21,2.2-38.58,2.58-50,.56-.3-5.37-.61-10.91-1-17.62l-18.46-1.33c-.41-4.67-.85-9.47-1.37-15.3-5.44-.17-10.63-.4-15.82-.49-5-.08-9.91,0-15.58,0v-14Z" transform="translate(0 -852.25)"/><path d="M801.78,2434.58h31.33c.43-5.35.79-9.88,1.24-15.45l18.47-1.27c.41-5,.82-9.75,1.27-15.14h33.34V2433L869,2434.05c-.44,5.38-.8,9.94-1.25,15.54h-35v32.09H782.34v-29.95l18.18-.95C800.91,2445.7,801.29,2440.89,801.78,2434.58Z" transform="translate(0 -852.25)"/><path d="M677.76,1948.3h33.3c.3,11.5.6,22.91.93,35.27h51.12V1997c-6.84,2.07-85,2.85-104.88.94v-33.18l17.71-1.23C676.56,1958.35,677.14,1953.54,677.76,1948.3Z" transform="translate(0 -852.25)"/><path d="M1293.75,2466.74l-18.07-1.13c-.5-5.1-1-9.67-1.48-15.19h-50.62v-14.93h69c.43,4.84.84,9.36,1.34,15l15,1.41c.52,5,1,9.77,1.58,15.27l17.94.84v13.91h-32.92C1294.91,2477,1294.37,2472.24,1293.75,2466.74Z" transform="translate(0 -852.25)"/><path d="M1117.08,2247.87c-.3,6.54-.55,12.08-.84,18.17h-16c-2.19-7.16-2.47-39.65-.33-49.69h52v13.79l-18.07,1.17c-.41,5-.77,9.56-1.23,15.16Z" transform="translate(0 -852.25)"/><path d="M942.25,2247.09v-30.62h13.58c.48,5,.93,9.78,1.43,15.11H977c.38-5,.73-9.57,1.13-14.72,2.2-.35,4.39-.86,6.61-1,2-.12,4,.19,7.32.38.67,9.82.29,19.61.21,30.88C975.58,2247.26,959.45,2247.25,942.25,2247.09Z" transform="translate(0 -852.25)"/><path d="M1152,2366.23c.41,5.57.75,10.11,1.15,15.55l15.28,1.3v17H1135c-.37-6.06-.7-11.58-1.1-18.05l-15.18-1.41v-14C1129.65,2365.76,1140.67,2366.29,1152,2366.23Z" transform="translate(0 -852.25)"/><path d="M887.4,2550.51H870.27c-.34-6.17-.64-11.73-1-18.19l-15.16-1.43v-13.67H887.4Z" transform="translate(0 -852.25)"/><path d="M1240.52,1782.13v29.47h-17.21v-29.47Z" transform="translate(0 -852.25)"/><path d="M1223.24,2531.51v-14.36h33.39v14.1C1245.91,2531.82,1235.16,2531.38,1223.24,2531.51Z" transform="translate(0 -852.25)"/><path d="M410.34,1278.31v17.06H393.22v-17.06Z" transform="translate(0 -852.25)"/><path d="M622.91,945.21v13.44H605.63V945.21Z" transform="translate(0 -852.25)"/><path d="M1576.18,1076.22v-13.51h17.14v13.51Z" transform="translate(0 -852.25)"/><path d="M501,1981.58v-16.73h13.62v16.73Z" transform="translate(0 -852.25)"/><path d="M693.73,942.28V928.85h17.15v13.43Z" transform="translate(0 -852.25)"/><path d="M1223.3,1948.25h17V1962h-17Z" transform="translate(0 -852.25)"/><path d="M903.53,2400.26H890.19v-17.12h13.34Z" transform="translate(0 -852.25)"/><path d="M1206.71,2416.39v-13.57h14.08v13.57Z" transform="translate(0 -852.25)"/><path d="M374.41,1363.41v13.77h-13.7v-13.77Z" transform="translate(0 -852.25)"/><path d="M1206.93,1915.7h13.88v13.65h-13.88Z" transform="translate(0 -852.25)"/><path d="M1361.44,2719.91v13.56h-14v-13.56Z" transform="translate(0 -852.25)"/><path d="M376.63,1311.58v-13.33h14v13.33Z" transform="translate(0 -852.25)"/><path d="M956.05,2366.8v13.71H942.16V2366.8Z" transform="translate(0 -852.25)"/><path d="M1610.07,1125.65h-14V1112h12.84C1611.67,1115.92,1609.64,1120.41,1610.07,1125.65Z" transform="translate(0 -852.25)"/><path d="M905.62,857.25c4.2-6.41,9.83-6.58,15-1C915.93,859.24,911.32,858,905.62,857.25Z" transform="translate(0 -852.25)"/></svg>