<svg id="Calque_1" data-name="Calque 1" xmlns="http://www.w3.org/2000/svg" viewBox="0 0 2160 3243"><path d="M0,3086.1c4.54-.49,7.47-2.3,7-7.59-.24-2.61.18-5.28.36-9.34,29-.73,57.77.15,87.32-.5.4-5.35.74-9.88,1.17-15.53,16.81-1.43,33.68.24,51-1,.51-5.44,1-10.24,1.44-15.45h13.55c.33,10.23.66,20.64,1,31.56h20.08c.4-5.12.76-9.66,1.16-14.83l15.11-1.69c.37-4.92.72-9.48,1.12-14.78l15.15-1.44c.37-4.89.7-9.43,1.14-15.42h34.72c.46-5.95.81-10.48,1.27-16.41h34.57c.47-5.57.87-10.36,1.31-15.64l15.38-1.55c.31-5.05.59-9.63.95-15.36h35v-19.08l19.25-1.26c.53-5.25,1-10.06,1.63-16.1h31.12l1.4-15.47,18.36-1.3c.37-5.08.69-9.61,1.1-15.27h34.65c.49-5.78.9-10.56,1.37-16l15.15-1.49c.4-4.94.77-9.47,1.26-15.36h51.07c.38-5.92.66-10.47,1-15.9l18.51-1.18c.41-5.09.8-9.88,1.28-15.86h31.32c.58-6,1-10.76,1.58-16.37H588c.41-6.58.78-12.38,1.19-18.9l15-1.34c.43-4.81.86-9.59,1.35-15l18.35-1.31c.44-5.05.83-9.58,1.32-15.25,9.83-.83,19.58-.48,30.1-.06v13.85l-15.25,1.61v34.15L624,2820.11v97.71l15.66,1.46v51.31h51.71c.43,5.94.75,10.52,1.17,16.25l18.71.84v47.79l16,1.29c.36,4.78.71,9.31,1.14,15l14.94,1.41c.55,4.94,1.08,9.72,1.68,15.13l18.29,1.14c.36,5.14.68,9.7,1.1,15.72h34.88c.34,7,.61,12.51,1,19.32,17.64.64,34.73.34,52.8.12.29-6.45.53-12,.78-17.49,6.88-2.12,51.59-2.7,66.11-.8.4,5.62.81,11.42,1.26,17.83h72c.38-6.07.75-11.87,1.19-18.77H1065c.37-3.64.62-6.19.88-8.74.23-2.25.47-4.5.79-7.68h67c.52-5.64,1-10.41,1.49-16.33h34.49c.48-5.64.87-10.16,1.38-16.18h34.68c.46-5.95.8-10.47,1.23-16.16h34.61c.5-5.83.9-10.6,1.41-16.54H1274c.61-6,1.11-10.85,1.63-16l18.11-.89c.47-5.08.92-9.86,1.49-15.86h34.43c.56-7,1-12.76,1.55-19.41h31.22c.51-5.55,1-10.33,1.48-16l18-1.42c.59-5.2,1.14-10,1.72-15.07l15.37-1.22v-31.48l19.19-1c1.39-15.86-.12-31.71.91-47.87l15.51-1.35c.34-4.92.68-9.72,1-15.06l15.59-1.4v-116h17.85c.42,4.71.85,9.51,1.34,15l15,1c.42,4.87.83,9.67,1.32,15.27l18.32,1.18c.38,4.84.74,9.38,1.21,15.28h51c.48,5.82.85,10.36,1.34,16.24,11.08,1.08,22.3.33,33.47.47,10.95.13,21.9,0,33.5,0,.55,5.42,1,10.21,1.63,16.21h54.2c.48,5.76.87,10.29,1.35,16h31.31c.43,7,.78,12.82,1.2,19.77h34.43c.67,5.9,1.21,10.7,1.88,16.59h34.3c.47,5.68.85,10.24,1.32,15.92h34.48c.55,5.83,1,10.6,1.55,16.49h34.36c.58,5.84,1,10.61,1.64,16.52h31.25c.54,5.7,1,10.25,1.5,15.79,8.91,1.31,17.84.5,26.7.64s17.87,0,27.35,0c.51,5.46,1,10.27,1.48,15.93h67.1c.53,5.58,1,10.35,1.56,16.47h51c.41,5.89.74,10.44,1.14,16.11,3.7.23,7.21.62,10.71.63,23.34.06,46.67,0,70,.06,3.64,0,7.28.43,10.92.66V4096H0Z" transform="translate(0 -853)"/><path d="M1716.09,1545.46l17.68,1v17.14l-18.26,1.23v16.78h34.34c.59,5.84,1.08,10.62,1.64,16.23h17.92v14.89l-18.14,1.16c-.37,5.11-.71,9.66-1.09,14.85l-15.16,1.68v16.83h34.65v14.4l-18.27,1.23c-.42,4.93-.8,9.48-1.25,14.82h-13.79c-.37-4.8-.71-9.33-1.12-14.63h-20.11v50.74L1699,1715v31.23l-16.54,1.93v63.54l-19.78,1.43c-.48,16.76-.16,33.29-.22,49.81s0,33.18,0,50.87h-35.73v68l-15.86,1.23c-.34,5-.68,9.76-1,15.13l-15.28,1.29c-.34,5.23-.63,9.81-1,15.17l-18.44,1.22c-.53,5.12-1,9.91-1.57,15.14l-15.26,1.26v31.37h-18.2c-.72-26.39.07-52.89-.46-80.48l-16-1.24v-67.36l-16.23-1c-.7-10.51-.24-21-.32-31.53s0-21.23,0-32.94l-18.88-1c-.4-6.35-.76-12.15-1.19-18.94h-50.85l-1.66-15.91h-140.6c-.32,5.06-.6,9.62-.88,14.08-7.12,2-37.69,2.38-50.07.67v-29.6l15.18-1.18c.35-5.1.67-9.9,1-15.21l15.06-1.07c.47-5,.93-9.75,1.51-15.92h87c.47-5.91.84-10.45,1.25-15.65h85.57c.39,4.59.78,9.09,1.2,14,6.38,2.78,12.78,1.8,19.85.58V1545.07l-19-1.16v-31.39l-15.49-1c-.55-5-1.08-9.79-1.73-15.74h-35v-32.28l-16-1.24c-.36-5-.69-9.54-1.1-15.25l-18.22-1c-.46-5.21-.89-10-1.39-15.59h-31.36c-.45-6.58-.85-12.39-1.32-19.38l-18.14-1c-.6-5.08-1.16-9.88-1.85-15.68h-50.53c-.5-5.53-.9-10.07-1.29-14.48-7.06-2.39-111.44-3-124.1-.73-.55,4.61-1.13,9.41-1.82,15.1h-50.65c-.5,5.42-.91,10-1.32,14.49-6.94,2.14-38.16,2.53-49.83.52-.35-4.36-.71-8.89-1.06-13.31-7.28-2.09-76-2.57-88.43-.57-.37,4.31-.76,8.84-1.26,14.78-28.64.77-57.43-.12-86.9.51-.42,6.66-.79,12.48-1.19,18.9H834.42c-.35-5.73-.7-11.55-1.11-18.24h-33c-.2,3.38-.44,6.3-.53,9.23-.09,2.63,0,5.27,0,9-9.21,1.21-18.12.49-27,.61s-17.92,0-27.89,0c-.44,5.46-.83,10.24-1.26,15.58l-15.07,1.2c-.4,4.92-.79,9.71-1.22,15l-15.5,1.61v31.21l-19.44,1.35v31.18L675.79,1529v34.51l-19.68,1.38v31.21l-16.26,1.32c-.08,12.48-.19,24.65-.23,36.82,0,12.66,0,25.33,0,38v74.21l-15.41,1.45v16.85c17.42.22,34.63.07,51.83.1q25.5,0,51,0h52.3c.59,5.71,1.08,10.51,1.67,16.29h51.22v32.61h55.24v14.33H746.22c-.37-4.78-.72-9.32-1.15-15-10.86-1.17-21.59-.82-33-.24-.29,5.33-.54,9.89-.87,15.8H587.44v153.17l-18.42,1c-2.83,10.31-.22,20.68-1.8,31.53H552.64v-31.3l-15.7-1.26c-.35-5.94-.7-11.78-1.08-18.33H516.19c-.46,6.14-.91,12-1.39,18.3H501.12v-49.48l13.5-1.16c2.66-7.14,3-22.14.67-33L501.1,1897c-.38-4.6-.76-9.12-1.24-14.92l-18.31-1.4c-.44-4.69-.89-9.49-1.41-15.06L464.39,1864v-34.48l-15.87-1.16v-47.73l-19.2-1.09v-14l18.24-1.38v-16.25l-18.29-1.19c-.52-5.23-1-10-1.54-15.38l-14.8-1c-.49-5-1-9.78-1.51-15.26l-18.29-1.19c-.35-6.14-.67-11.71-1.05-18.34l-15.23-1.16v-14.21H412.1V1648l16.29-1.35c.26-16.44.25-32.51-.09-49.27L413,1596.29c-.49-4.91-1-9.71-1.53-15.25l-18.89-1.23v-34.66L377,1544c-.49-4.82-1-9.61-1.53-15.11l-15.38-1.2c-.15-15.7-.31-31.46-.48-48.34H288.49v-14.76H339.3c2.11-10.88.26-21.19,1.4-32.34l18.58-1.08c.34-6,.67-11.84,1.07-18.94h31.4V1395l-15-1.54v-29.73l15.74-1.83V1330.7l19-.92c.41-5,.81-9.75,1.3-15.65h34.51v-17.24l-18.1-1.28V1180.39l18.43-1V1148h15.75v31.27h17v-31.83h36.1v-51.92l19-1.21c2-10.15.07-20.47,1.37-31.72h31.69c1.1-15,.41-28.84.54-42.69.13-13.63,0-27.27,0-42.14,23.62-.93,46.79.17,71.22-.68V945.39h15.06c.4,4.76.78,9.28,1.28,15.26l34.7.43c.4,5.66.72,10.25,1.09,15.57h20V945.42l16.47-1.7V912.2h52.2V861.68c8-2.36,105.15-3.11,122.37-1.13.4,5.59.82,11.4,1.3,18h36.75V853h120.83c3.29,5.75,3.29,5.75,17.67,7.66.36,5.63.74,11.45,1.16,18l15.34,1.15c.38,5,.72,9.53,1.17,15.51,12,.51,23.68.54,36-.07.38-5.4.71-9.94,1.09-15.18H1152c.36,4.75.71,9.28,1.18,15.26,29,.79,57.78-.1,87.06.51.47,5.19.87,9.75,1.36,15.14H1258c.41-4.62.8-9.12,1.32-15,16.75-.8,33.56.13,51.45-.58V860.32h17.75c.46,5.76.92,11.55,1.48,18.58h31.1c.62,6,1.11,10.8,1.67,16.14h18.78c3.28-11.22-.39-23,2.25-34.71h33.62v67.18l15.86,1.22c.37,4.94.72,9.47,1.16,15.36a311.69,311.69,0,0,0,36.06.09l1.29-15.53h13.72V959l-14.89,1.26V993l15,1.29c.39,6.05.77,11.87,1.19,18.41l19.13,1.26v31.22l16,1.31v31.31h36.9c.38-4.73.76-9.52,1.19-14.92h14c.81,21-.2,42.21.58,64.08,3.51.29,6.38.62,9.26.73s5.87,0,9.59,0c.39,6.61.74,12.43,1.13,19l15.34,1.15v31.27l16,1.35,1.18,15.12,18.46,1.12c.43,4.86.85,9.65,1.31,15l15,1.71c.44,5,.85,9.54,1.31,14.76l18.95,1.46v48.13h32.6v35.85h35.23v14.51l-14.81,1.37v16.4h16.37c.39-5,.74-9.58,1.15-14.87h17v98.57l-18.37,1.28c-.39,5-.76,9.83-1.17,15L1735,1447c-.35,5-.69,9.8-1.07,15.2l-18.48,1.11v17h18.11V1495l-16.74,1C1714.25,1503.32,1713.8,1533.65,1716.09,1545.46ZM1064.88,911.39v-16.6l-18.19-1.18c-.39-5.35-.73-10.12-1.07-14.91h-16.38v16.39l15,1.24c.5,5.58.91,10.11,1.35,15.06Z" transform="translate(0 -853)"/><path d="M1310,2767.38v51.33l-36,1v31.81h-32c-.61,6-1.11,10.76-1.67,16.15l-18.27,1.14c-.42,5.17-.79,9.7-1.26,15.41h-34.46c-.6,5.92-1.08,10.71-1.64,16.33h-31.14c-.54,5.54-1,10.32-1.47,15-7.3,2.07-213.2,2.81-229.42.75-.42-4.56-.87-9.36-1.42-15.35H890.1c-.43-5.68-.78-10.21-1.19-15.63-11.43-2.26-23.11.24-34.79-1.52-.41-5.05-.77-9.57-1.22-15l-18.42-1.07c-.41-4.9-.78-9.42-1.25-15.14l-14.91-1.27c-.5-5-1-9.78-1.53-15.29l-14.91-.88c-.42-4.86-.84-9.65-1.31-15.17l-18.36-1.47v-49.62h17.73v31.27l15.58,1.28c.41,6.1.81,11.9,1.28,18.83h34.57c.48,5.61.87,10.12,1.34,15.68,16.73,2.28,33.67-.37,51,1.56l1.09,15,15.06,1.31c.48,4.88.95,9.68,1.52,15.57h34.49c.42,5.58.77,10.09,1.1,14.48,6.94,2.38,144.48,3.22,160.48.93l1.19-14.6h13.64c.58,4.94,1.15,9.74,1.78,15.06h19.27c.4-4.74.8-9.51,1.32-15.63H1186c.47-5.84.86-10.67,1.28-15.86l18.55-1.1c.32-5.31.6-9.88.92-15.05l15.17-1.61c.46-4.94.87-9.46,1.37-14.86l18.43-1.33c.35-6.12.68-11.93,1.08-19h31.32c.53-5.76.94-10.29,1.43-15.65l18.81-1.34v-31.27l15.63-1.28c.57-5.05,1.11-9.84,1.69-15H1345v13.52l-15.1,1.25c-.38,5-.74,9.82-1.14,15.2Z" transform="translate(0 -853)"/><path d="M1449.44,1962.31l-15,1.14c-.33,6-.64,11.51-1,18.55a310.76,310.76,0,0,1-34,0v-49.92c-8.48-2.29-42-2.59-53.48-.54v30.65h-71V1931l-15.55-1.39v-30.12h102.09c.36,5.21.68,9.8,1.09,15.61h54.18c.51,5.74.9,10.28,1.39,15.85l15.09,1.27c.38,4.8.73,9.33,1.17,14.94l15.09,1.28Z" transform="translate(0 -853)"/><path d="M800.93,1899.25h14.49c.45,5.07.88,9.87,1.38,15.39l15.1,1.27a221.85,221.85,0,0,1,0,29.85l-15.06,1.31c-.39,4.73-.78,9.5-1.23,15H745.83V1931h-17.3c-.36,4.82-.7,9.35-1.1,14.81l-15.53,1.37v33.38c-8.58,2.32-43,2.62-53.83.68v-32.79l17.92-1c.58-5.14,1.11-9.92,1.76-15.81h34.39c.45-5.62.81-10.16,1.28-16.09,22-.32,43.68-.08,65.94-.16.56,5.6,1,10.39,1.56,15.72h20Z" transform="translate(0 -853)"/><path d="M888,2402V2433l-19,1.16c-.48,5.2-.92,10-1.46,15.76H816.92c-.52,5.69-.95,10.47-1.44,15.79H782.15c-1-9.72-.38-19.51-.41-30.1l18.76-1.33c.45-5.2.87-10,1.38-15.93h31.24c.45-5.66.82-10.21,1.26-15.8h34.71c.42-6.79.78-12.61,1.19-19.15h33.29v16.9c-3,.17-5.65.23-8.23.5C893.12,2401,890.93,2401.49,888,2402Z" transform="translate(0 -853)"/><path d="M991.87,2217.17v13l-15,1.31c-.38,5.16-.71,9.71-1.1,15H942.43v-28.78C949,2215.45,980.23,2215,991.87,2217.17Z" transform="translate(0 -853)"/><path d="M1292.6,2434.91c.51,5.9.9,10.44,1.36,15.64l15.13,1.52v13.54h-33.44c-.43-4.81-.83-9.36-1.34-15.09l-15-1.1v-14.2C1270,2434.47,1280.81,2435,1292.6,2434.91Z" transform="translate(0 -853)"/><path d="M1132.61,2216.8v13.54l-15.28,1c-.39,4.93-.76,9.7-1.2,15.21h-17c-.38-4.8-.75-9.3-1.2-14.89l-15.08-1.44v-12.63C1089.3,2215.54,1118,2215,1132.61,2216.8Z" transform="translate(0 -853)"/><path d="M1222.67,2517l18.92-.88c.4-5.11.76-9.63,1.18-15h13.89V2531h-33.33C1223.14,2526.86,1222.93,2522.48,1222.67,2517Z" transform="translate(0 -853)"/><path d="M1220.81,2402.64v13.88h-33.35v-13.88Z" transform="translate(0 -853)"/><path d="M1257,2419.19v14.09c-11,.53-21.76.18-33.38.23v-14.32Z" transform="translate(0 -853)"/><path d="M867.94,2517.21v13.58H834.31v-13.58Z" transform="translate(0 -853)"/><path d="M390.41,1295.86H377v-17.25h13.37Z" transform="translate(0 -853)"/><path d="M304.61,1511.28v-13.52h17.46v13.52Z" transform="translate(0 -853)"/><path d="M1135,2380.7v-13.92h16.8v13.92Z" transform="translate(0 -853)"/><path d="M393.17,1262.29h17v13.53h-17Z" transform="translate(0 -853)"/><path d="M1733.42,1276.17H1717v-13.53h16.43Z" transform="translate(0 -853)"/><path d="M1736.74,1278.37H1750v17.24h-13.24Z" transform="translate(0 -853)"/><path d="M922.39,2364.27v-13.46h17.05v13.46Z" transform="translate(0 -853)"/><path d="M1207.14,1932.29h13.37v13.57h-13.37Z" transform="translate(0 -853)"/><path d="M1700.35,1795.58V1782h13.57v13.58Z" transform="translate(0 -853)"/></svg>