<svg id="Calque_1" data-name="Calque 1" xmlns="http://www.w3.org/2000/svg" viewBox="0 0 2160 3243.32"><path d="M0,3086.1c9.31-.23,18.61-.45,27.92-.71,3.57-.1,7.13-.3,11.17-.48.4-5.42.73-10,1.16-15.72h70.49c.59-5.91,1.06-10.7,1.63-16.44h103c.45-5.66.83-10.45,1.29-16.33h34.61c.49-5.81.89-10.59,1.38-16.45h34.54c.47-5.59.85-10.11,1.31-15.62l15.35-1.28c.26-4.87.5-9.4.83-15.37h34.87c.49-6.14.87-10.92,1.3-16.23l18.61-1.28c.28-6.19.53-11.73.83-18.53h31.48c.55-6,1-10.77,1.47-16.08l18.31-1.39c.41-5.2.77-9.74,1.18-15l15-1.18c.46-4.75.92-9.53,1.49-15.48h34.42c.53-5.83,1-10.61,1.46-16l14.86-1.25c.51-4.91,1-9.69,1.63-15.69h54.34c.28-5.78.5-10.34.76-15.65l15.22-1.29c.53-5.17,1-10,1.63-15.94h34.35l1.45-16h34.13c2.51-12.18.1-23.53,1.8-35.87a231.24,231.24,0,0,1,30.09.17v33.44l-13.68,1.18c-2.48,7-3.23,99.79-.88,114.38l15,1.54v51.23a313.75,313.75,0,0,0,36.93,0c.38-5.25.71-9.77,1.1-15.13h17.5v47.41L728,3020.6v31.28l15.37,1.23c.56,5,1.09,9.83,1.69,15.22l18.29,1.14c.36,5.15.68,9.71,1.1,15.73h34.86c.36,7,.64,12.52,1,18.78l15.32,1.64c.37,4.9.71,9.46,1,13.91,7.33,2.21,40.35,2.63,52.43.6.45-4.56.93-9.37,1.46-14.66h69.13c.43,5.17.8,9.75,1.26,15.3,22.71,1.15,45.19.34,68.64.54.45-5.65.84-10.45,1.32-16.49h54.5c.3-6.75.54-12.29.85-19.18,17-.65,33.83.16,51.28-.48.36-5.4.66-9.94,1-15.5,11.13-1.64,22.35-.47,33.49-.73s22.44-.21,34-.3c.54-5.73,1-10.25,1.49-16h34.29c.64-6,1.15-10.75,1.71-16l18.12-.87c.42-5,.83-9.8,1.33-15.8h31.32c.47-5.75.84-10.29,1.31-16h34.63c.45-5.92.81-10.72,1.22-16.15l18.54-1.05c.38-5.13.71-9.68,1.14-15.53h31.59c.43-7,.79-12.78,1.19-19.22l18.33-1.26c.39-5.1.73-9.65,1.14-15.06l15.34-1.59c.37-4.77.71-9.28,1.13-14.77l18.64-1.46v-31.34l15.91-1.13c2.07-10.07.06-20.38,1.35-31.33l15.62-1.52v-67.31l19.23-1.28v-49.12l-18.31-1.12v-30h16.91c.42,4.8.84,9.6,1.32,15l15,1c.44,4.9.87,9.71,1.36,15.23l18.31,1.23c.39,4.88.75,9.43,1.19,15l15.17,1.24c.39,4.86.75,9.4,1.23,15.42,23.36.9,46.82,0,70.64.53.43,5.43.8,10,1.27,15.85,22.29.85,44.46-.12,67.14.56.44,5.2.81,9.71,1.23,14.7,11.47,3.36,23.29-.39,35,2.43.31,5.72.62,11.29,1,18.32l34.77.5c.48,5.55.87,10.09,1.35,15.61,6,.17,11.51.38,17.06.46s11.23,0,17.34,0c.6,5.67,1.1,10.46,1.72,16.31h31.3c.45,5.62.82,10.16,1.28,15.93h34.3c.69,5.91,1.26,10.7,2,16.56h34.28c.48,5.62.87,10.17,1.31,15.24,8.56,2.75,17.2,1,25.66,1.28,8.25.32,16.51.07,25.29.07.48,5.39.89,9.94,1.38,15.46,8.48,1.83,17.1.63,25.59.85,8.26.21,16.52,0,25.35,0,.47,5.43.85,9.95,1.35,15.83,17.82,1.21,35.7-.12,54,.79.6,5.3,1.15,10.1,1.81,15.82h86.69c.44,6.71.82,12.52,1.27,19.55,12.29.24,24.11,1,36-.49V4096H0Z" transform="translate(0 -852.68)"/><path d="M392.4,1563.56v-18.28l-15.7-1.51c-.34-5-.65-9.57-1-14.77L360,1527.51v-31.2l-19-1.26v-30.29l18.16-1.13c.38-5,.74-9.49,1.17-15.08l15.11-1.26c.42-4.82.8-9.33,1.28-15l14.61-1.24c2.36-9.45.89-18.74,1.15-27.92.27-9,.06-18,.06-27v-28.84l18.93-1.42c.39-5,.76-9.78,1.17-15.14l15.08-1.11c.44-4.91.86-9.69,1.35-15.16l18.35-1.26v-16.51l-18.11-1v-17.24l18.44-1.29V1165.55c8.1-2.26,19.77-2.54,30.89-.9.25,2.08.55,4.31.77,6.55s.35,4.6.58,7.77h19.66c.41-4.53.84-9.31,1.33-14.66l15-1.22c.42-4.94.83-9.73,1.3-15.21l18.8-1.16v-68.08h32.72V1014l19.54-1.39V978.08h14.89c.32,5.06.61,9.61.94,14.87h19.51c.59-5,1.15-9.84,1.8-15.47h31.1c.51-5.56.94-10.35,1.43-15.86h17c.36,4.91.7,9.44,1.14,15.4,11.94.63,23.65.5,36.67.06V944.39H745c.46-5.76.83-10.32,1.28-15.92h34.62c.48-5.78.89-10.58,1.36-16.15l17.5-.8c3.39-10.11.15-20.54,2.3-31.92,16.44-.7,33.27.13,50.9-.49.4-6.62.76-12.43,1.18-19.41h24.13c6.33,0,12.69-.36,19,.11,5.49.42,8.94-1.25,9.52-7.1h12.14l3.49,6.6,17.31.89v17.1l-18.33,1.11v17c11.71.44,23.2.14,35.65.13,2.15-11.81-.09-23.47,1.54-35.88,4.09,0,7.68-.24,11.22.06,5,.42,8.41-1.13,8.74-7h12.12c1.85,3.82,3.94,7.83,10.34,7.13,5.3-.58,10-.45,10.59-7.26h51.16c1,2,2.2,4.24,3.43,6.61l14.48.84v35.23h103.86c.62,5.61,1.15,10.39,1.76,15.82h19.48c.37-4.86.71-9.38,1.15-15.17,10.86-.73,21.67-.19,33.17-.32.65,5.37,1.23,10.17,1.87,15.55h68.32c.43-5.11.82-9.66,1.26-15L1329.9,895c.39-5,.74-9.51,1.21-15.48,11.26-.39,22.44-.13,33.6-.18,11,0,21.89,0,33.92,0,.41-6.66.77-12.48,1.17-19h33.88v83.77H1505v15l-18.25,1v32.94l19.06,1.25V1029l16,1.24v31.3l16.07,1.18v31.1c13,2,24.7.72,37.22,1,.44-5.46.8-10,1.23-15.35h17.43v47.49l16.44,1.44v34.51l15.7,1.35c.39,4.62.8,9.4,1.29,15.1l18.42,1c.4,4.91.78,9.44,1.25,15.15l14.92,1.26c.5,5,1,9.78,1.54,15.2l18.3,1.19c.43,5.12.82,9.66,1.24,14.76l15.78,1.93v48h71.11v66.63l-18.2,1.5v16.24h19.66c.4-5,.76-9.52,1.17-14.64,2.29-.34,4.48-.81,6.69-.94a54.49,54.49,0,0,1,5.78.24c2.29,7.25,3.07,60.84,1.19,82.67l-14.91,1.3c-.42,4.81-.81,9.34-1.3,15l-18.39,1.2c-.4,4.93-.79,9.73-1.23,15.12l-15.16,1.4v16.27l15,1.39v30.19l-15.29,1.19c-.65,28.23-.24,56.3-.27,84.64a54.24,54.24,0,0,0,5.86,1c3.31.12,6.62,0,11.08,0,.45-5.29.86-10.07,1.34-15.57h17v62.76l-18.3,1.08v17h34.51v14.29l-14.94,1.44c-.39,4.94-.75,9.48-1.22,15.5h-34.89c-.32,7-.58,12.55-.88,19.08L1715.4,1715c-.39,5-.77,9.77-1.19,15.17l-14.78,1.1c-2.69,10.29.42,21.06-1.93,31.7l-14.63,1.18v16.55l14.76,1.09v46.28l-15.26,1.55v84h-35.52c-1.62,23.13.21,45.34-1.15,68.12l-18.51,1.28c-.4,5-.77,9.5-1.22,15.06l-15,1.23c-.49,5.11-.94,9.92-1.45,15.19l-14.89,1.39c-.42,4.89-.83,9.69-1.28,15l-18.78,1.25v31.13h-14.68c-.28-9.87-.58-20.26-.91-31.56h-18.75c-1.33-28.59.28-56.38-.94-84.64l-15.57-1.23v-47.49l-16.57-1.48V1849l-19-1c-.42-6.28-.81-12.09-1.27-19H1383.37c-.4-5.68-.72-10.22-1.11-15.63h-19.67c-.38,4.64-.77,9.44-1.21,14.81H1259.15v-29.61l15.14-1.72c.42-5,.8-9.55,1.28-15.27h34.51c.54-5.91,1-10.71,1.55-16.79h139.19c.51-5.82.9-10.37,1.36-15.55h17c.38,5,.73,9.52,1.14,14.82h16.48v-199.3l-15.57-1v-35l-19-.87c-.45-4.94-.88-9.72-1.41-15.6h-32.09V1480l-19-1.42c-.39-5.12-.73-9.67-1.16-15.36h-34.47c-.56-5.85-1-10.63-1.54-16l-15.12-1.54c-.47-4.94-.91-9.51-1.43-14.87l-14.94-1.14c-.38-5.83-.76-11.63-1.22-18.64h-34.39c-.66-5.89-1.19-10.68-1.84-16.45h-50.55c-.58-5.7-1.06-10.49-1.62-16h-19.49c-.42,4.85-.81,9.37-1.33,15.34-11.17.54-22.36.18-33.52.24-11,.07-21.93,0-33.9,0-.45,5.47-.83,10.27-1.3,16H869v35.36c-11.87,1.5-22.68.58-34.39.71-.48-5.25-.93-10-1.43-15.43H800.48c-.39,4.78-.76,9.29-1.22,14.95l-18.42,1.05c-.39,4.95-.76,9.73-1.21,15.64H745.05c-.54,5.86-1,10.66-1.46,15.89l-15.11,1.74c-.37,5-.71,9.59-1.09,14.74l-15.1,1.23c-.43,4.78-.86,9.57-1.37,15.22l-18.75,1.17v31.22l-15.76,1.3c-2.15,16.89.33,33.82-1.45,51.13L656,1597.39v116.37L640.43,1715v16.47l14.71,1.2v13.77l-14.89,1.65v32.57h35.88c.49-5.14.94-10,1.43-15.18h33.37c.42,5.15.79,9.7,1.22,15H728.6c.46-5,.89-9.79,1.37-15.12H763.3c.36,5.09.69,9.64,1.12,15.62,28.94.81,57.72-.09,87.37.53v31.23c12.1,2.49,23.79-.1,35.66,1.79.39,4.86.76,9.39,1.21,15l15,1.19v16c-7,2.06-67.84,2.77-85.39.88-.41-5.58-.83-11.38-1.24-17-7.48-2.21-113-2.65-124.58-.44-.27,5.29-.54,10.83-.88,17.79-9.36,1-18.91.35-28.39.46-9.66.12-19.33,0-29,0H604c-.59,22.76-.2,44.61-.27,66.44s0,43.92,0,66.79l-15.92,1.48v47.6H569.18v-31.12l-15.8-1.58c-.45-4.94-.87-9.5-1.37-14.87l-15.11-1.43c-.32-6-.63-11.52-1-18.3l-19-1.07v-64.56h-35.3c-.52-5.71-.94-10.25-1.44-15.8l-15.56-1.46V1797l-16.55-1.53V1748l-18.89-1.4c-.43-5.1-.82-9.64-1.28-15l-15.14-1.38v-65.67l15.07-1.53v-65.58l-15.31-1.12V1565Zm1359.15-250.23v-16.4h-36v16.4ZM1065.38,894.86h-20v16.19h20Z" transform="translate(0 -852.68)"/><path d="M851.44,2820.16c.54,6.34.94,10.89,1.38,16l14.66,1.22c.53,5,1,9.84,1.67,15.7h34.32c.58,5.86,1.06,10.64,1.65,16.51h34.46c.45,5.61.82,10.14,1.27,15.8H975.4c.52,5.82,1,10.59,1.45,16.07h88.3c.42-4.93.8-9.46,1.25-14.77h13.78c.38,4.85.73,9.39,1.14,14.71h16.48c.4-4.67.79-9.19,1.28-14.9,28.7-1.57,57.5.21,86.7-1,.65-5.46,1.22-10.26,1.89-15.84h34.22c.47-5.49.87-10.28,1.34-15.79l18.35-1.15c.4-4.94.77-9.46,1.23-15.09l15.13-1.47c.43-4.91.86-9.7,1.33-15l15-1.22c.39-6,.76-11.82,1.18-18.36l18.39-1.35c.45-5,.85-9.5,1.34-14.9l14.83-1.41c.59-5.3,1.12-10.12,1.69-15.27h16.85v50.18h-34.78c-.33,11.61-.63,22-.93,32.68l-18.5.86c-.4,4.94-.76,9.46-1.24,15.39l-31.38,1c-.49,5.37-.91,9.93-1.39,15.17l-18.34,1.19c-.4,5.1-.76,9.63-1.21,15.37h-34.52c-.54,5.9-1,10.68-1.53,16.71h-67.42c-.42,5.75-.76,10.28-1.09,14.7-7.3,2.16-162.8,2.62-173.94.5-.38-4.38-.76-8.91-1.25-14.59-5.82-.16-11.34-.38-16.87-.45s-11.25,0-17.62,0c-.54-5.53-1-10.31-1.53-15.79l-14.88-1.21c-.4-4.62-.82-9.42-1.33-15.31-5.76-.18-11.28-.42-16.81-.5s-11.25,0-17.68,0c-.52-5.37-1-10.13-1.51-15.58l-19.06-1.26v-32h-32c-.42-5.7-.76-10.24-1.16-15.62l-18.35-1.42v-17.3c10.76-.79,21.52-.22,33.22-.33.43,6.49.81,12.28,1.26,19.21Z" transform="translate(0 -852.68)"/><path d="M1433.5,1949.15c.24,4.8.45,9.07.71,14.41l15.25,1.22v33.3H1347.53c-.44-4.87-.86-9.41-1.38-15-23.28-1.59-46.43.18-70.33-1v-32.51C1283,1947.51,1421.54,1947.05,1433.5,1949.15Z" transform="translate(0 -852.68)"/><path d="M801.84,1948.28h29.89c1.22,10.93.41,21.72.5,33.51-17.22,1.56-34.08-.18-51.41,1.09l-1.21,15.69H744.83c-.42,6-.74,10.49-1.11,15.84H729.91c-.38-4.82-.74-9.38-1.21-15.29-16.93-.92-33.78,0-51.16-.58v-34.1H800.37C800.88,1958.77,801.32,1954,801.84,1948.28Z" transform="translate(0 -852.68)"/><path d="M853,2418c.46-5.83.82-10.35,1.21-15.29h49.52v13.63l-15.3,1.83v31.1c-18.78,1.61-36.93-.34-55.35,1.16-.44,5.32-.81,9.85-1.23,15.07l-15,1.45c-.41,5-.78,9.54-1.21,14.77H802.05v-47.1h31.08c.48-5.71.86-10.24,1.3-15.53Z" transform="translate(0 -852.68)"/><path d="M1223.35,2449.63v-30.49h16.8c.28,2.47.58,5,.86,7.53.26,2.26.51,4.51.89,7.84h50.45c.62,5.8,1.13,10.59,1.72,16l15,1.55c.35,4.95.68,9.51,1.07,14.94l18.4,1.22v13.48H1275.1v-31.34C1257.48,2449.22,1240.68,2450.41,1223.35,2449.63Z" transform="translate(0 -852.68)"/><path d="M1151.76,2230.32l-17.18,1c-3.47,11.53.35,23.32-2.44,34.81h-33.07v-49.57h52.69Z" transform="translate(0 -852.68)"/><path d="M1206.69,1962.33c-.27-5.35-.49-9.9-.75-15.18l-18.56-1.27v-13.5h69.26v29.95Z" transform="translate(0 -852.68)"/><path d="M1311.52,2736.12h33.21c.57,5.14,1.09,9.91,1.67,15.16l14.77,1.14v13.82c-9.44,1.17-19.21.23-29.73.54-.59-5.37-1.11-10.15-1.7-15.65l-18.22-1.25Z" transform="translate(0 -852.68)"/><path d="M919.83,1962.23H870.46v-13.91H905c.49-5.79.89-10.56,1.35-16h13.53Z" transform="translate(0 -852.68)"/><path d="M978.25,2216.33h13.48v30.33H958.52v-13.8L977,2231.7C977.39,2226.77,977.79,2222,978.25,2216.33Z" transform="translate(0 -852.68)"/><path d="M955.93,2350.3v30.12H922.46v-13.63l18.61-1.1c.39-5,.74-9.57,1.15-14.72,2.16-.35,4.33-.87,6.53-1A67.6,67.6,0,0,1,955.93,2350.3Z" transform="translate(0 -852.68)"/><path d="M322.54,1511.45H305v-30.29h16.52C323.59,1490.92,321.92,1500.71,322.54,1511.45Z" transform="translate(0 -852.68)"/><path d="M1256.68,2517.3v13.76h-33V2517.3Z" transform="translate(0 -852.68)"/><path d="M854,2517.06h33.35v14c-10.91,1.12-21.89.31-33.35.45Z" transform="translate(0 -852.68)"/><path d="M374.12,1361.05H360.49v-30.3h13.63Z" transform="translate(0 -852.68)"/><path d="M374.3,1596.35H360.59v-30.1h13.82C374.93,1576.48,375.22,1586.42,374.3,1596.35Z" transform="translate(0 -852.68)"/><path d="M605.84,961.36H622.6v14.07H605.84Z" transform="translate(0 -852.68)"/><path d="M675.29,2769v13.45H658.1V2769Z" transform="translate(0 -852.68)"/><path d="M710.64,2949.61H694.2v-14.12h16.44Z" transform="translate(0 -852.68)"/><path d="M393.38,1298.19h16.77v13.54H393.38Z" transform="translate(0 -852.68)"/><path d="M919.72,2400.39H906.59v-17.07h13.13Z" transform="translate(0 -852.68)"/></svg>