<svg id="Calque_1" data-name="Calque 1" xmlns="http://www.w3.org/2000/svg" viewBox="0 0 2160 3243.79"><path d="M0,3122.06c4.43-.63,7.51-2.31,7-7.65-.26-2.6.18-5.27.36-9.2H39.13c.36-7,.66-12.76,1-19.85H110.8c.54-5.74,1-10.55,1.54-16.31h103c.45-5.67.83-10.45,1.27-16L235,3052c.53-5.29,1-10.1,1.58-15.94H271c.47-5.59.86-10.13,1.35-15.94h31.21c.47-5.7.83-10.21,1.3-15.89l18.38-1c.37-5,.73-9.76,1.17-15.67H359c.55-5.88,1-10.68,1.5-16l15.22-1.35v-17.92l16.26-1.7c.36-4.93.7-9.5,1.12-15.3h34.53c.55-5.9,1-10.67,1.55-16.6h34.41c.59-5.93,1.07-10.74,1.59-15.92l14.71-1.09c.58-5.15,1.12-10,1.77-15.66h53.59c.46-3.36.86-5.87,1.12-8.38.23-2.26.31-4.54.49-7.3l15.12-1.21c.41-5,.8-9.78,1.23-15.13l15.35-1.41c.32-4.94.61-9.49,1-15.27l34.65-.92c.48-5.43.89-10,1.36-15.22l18.51-1.31c.31-6,.6-11.53.95-18.2l15-1.41c.55-5.09,1.07-9.9,1.64-15.15h13.66v33.3l-15.1,1.73c-.4,5-.76,9.55-1.18,14.76L625.38,2836c-2.54,7-3.21,84.92-.79,98l15.26,1.78v34.3l15.86,1.34v31.42h20.82v-31.1l16.74-1.82v-34.46h17.87c1,38.62-.18,77.07.67,116.28l15.51,1.45c.39,5,.74,9.48,1.16,14.81l15.14,1.62c.36,4.88.71,9.44,1.14,15.19l18.44,1c.41,6,.81,11.76,1.29,18.7H799c.56,5.92,1,10.72,1.52,16.21l15,1.06c.4,4.82.8,9.62,1.25,15.15h16.41c.38-4.79.74-9.33,1.2-15.06,17.67-1.44,35.55.29,54.39-1,.44-5,.87-9.84,1.34-15.29h13.41c.5,4.86,1,9.65,1.57,15.1h88.24c.36-5.15.69-9.72,1.06-15h14c.33,4.8.64,9.36,1,14.81h19.88c.37-4.95.7-9.51,1.12-15.24h34.91c.33-6.89.61-12.68.94-19.69h67.57c.41-5.75.73-10.3,1.11-15.73,16.73-2.32,33.68.5,51.06-1.64.45-4.85.88-9.36,1.42-15.12h34.37c.57-5.91,1-10.69,1.59-16.6h34.37c.6-5.85,1.1-10.65,1.63-15.87l14.67-1.22c.6-5.1,1.16-9.9,1.85-15.79h34.41c.39-5.63.69-10.19,1.06-15.62l18.42-1.15c.48-5.12.92-9.9,1.49-15.91H1363v-18.71l19.12-1.38c.46-5.1.89-9.91,1.36-15.2l15.07-1.28c.47-5,.92-9.76,1.43-15.13l18-1.1c2-15.83-.23-31.77,1.32-47.73l15.29-1.27c1.74-15.95-.29-31.87,1.19-48l15.57-1.1c.09-11.06.21-21.9.25-32.73,0-11.34,0-22.67,0-34v-33.29H1469c.48,4.8,1,9.6,1.53,15.13l14.93,1.15c.41,4.73.83,9.52,1.31,15l18.31,1.27c.41,4.9.79,9.45,1.27,15.23h31.07c.61,5.94,1.09,10.73,1.69,16.66h70.41c.47,5.65.85,10.16,1.32,15.72,23.55,2,47.08-.24,70.85,1.26.34,6.32.65,11.88,1,17.89,10.31,2.79,20.67.2,31.39,1.8.46,4.86.91,9.65,1.47,15.55h34.34c.61,5.92,1.1,10.72,1.71,16.61H1786c.45,5.62.81,10.15,1.23,15.34,11.45,2.78,23.18-.27,34.83,1.87.39,4.89.74,9.42,1.19,15.09h34.41c.58,5.84,1.06,10.63,1.64,16.5h31.29c.51,5.65.93,10.2,1.43,15.84,8.83,1.46,17.76.56,26.61.71s17.88,0,27.42,0c.53,5.43,1,10.22,1.57,16h50.66c.64,5.76,1.17,10.56,1.83,16.59h67.15c.39,6.75.72,12.28,1.07,18.28,2.1.48,3.95,1.28,5.8,1.29q41,.11,82,0a22.09,22.09,0,0,0,3.91-.68V4096H0Z" transform="translate(0 -852.21)"/><path d="M1681.64,1798v30.07l-19,1.25V1913l-15.84,1.63c-.4,5-.77,9.56-1.19,14.87l-18.88,1.29V1998l-15.94,1.35c-.4,5.27-.74,9.83-1.12,14.94l-15.1,1.77c-.4,5-.76,9.51-1.18,14.86L1575,2032c-.46,5.21-.88,10-1.35,15.29l-15.31,1.11v31.29h-18.16v-31.2l-16.15-1.13c-1-8.9-.33-18.11-.45-27.25-.13-9.33,0-18.67,0-28V1963.5l-16.54-1.42v-47.83h-18.69c-1.8-16.61.3-32.51-1.37-48.86l-15.09-1.26c-.41-4.63-.84-9.42-1.38-15.56h-51c-.45-6.89-.8-12.44-1.15-17.8-7.42-2.57-97.42-3-108.43-.5v17.48c-22.67,1.17-44.45.35-66.88.54v-33.84l14.87-1.24c.46-4.82.92-9.6,1.44-15l14.8-1.21c.51-5,1-9.79,1.56-15.15h173.83c.42,4.71.84,9.51,1.34,15.16,3.52.2,6.74.49,10,.52,2.94,0,5.89-.23,9.61-.4v-33.1l-18.75-1.09V1564.78l-16.38-1.24V1528h-35.87v-31.73l-15.89-1.44c-.41-4.71-.81-9.26-1.31-15l-18-1.16c-.52-5.06-1-9.84-1.59-15.38l-14.86-1.09c-.52-4.81-1-9.59-1.68-15.5h-34.13c-.7-5.9-1.27-10.71-1.94-16.32h-34.19c-.54-6.82-1-12.88-1.55-19.76h-31c-.59-5.6-1.09-10.39-1.65-15.81h-88c-.49,4.63-1,9.42-1.6,15.29h-34.56c-.41,6.82-.75,12.66-1.1,18.42-7.52,2-127.52,2.32-138.08.26-.29-5.38-.58-10.94-.95-18-11.84-1-23.59-.29-36.33-.4-.39,6.61-.74,12.43-1.15,19.3H852.88c-.47,5.75-.85,10.52-1.3,16l-18.49,1.21c-.43,4.94-.82,9.48-1.28,14.86H818.1q-.52-7-1-13.59c-7.16-2.27-39.38-2.78-52.57-.76-.38,4.52-.79,9.31-1.28,15.17H728.64c-.49,5.86-.89,10.66-1.32,15.87L712,1479.84v31.31l-19.3,1.25c-.4,4.89-.77,9.42-1.23,15l-15.4,1.31v34.67l-19.69,1.29v31.13l-16.51,1.69v63.85l-14.27,1.23c-.4.35-.66.56-.89.8s-.54.47-.6.75a18.21,18.21,0,0,0-.71,3.89q0,62,0,124a33.06,33.06,0,0,0,.81,4.7h32.57c.39-4.61.79-9.42,1.24-14.82h17c.39,5,.75,9.56,1.16,14.88h16.61c.38-4.91.74-9.71,1.14-14.94h33.43c.37,5.08.7,9.63,1.13,15.56,34.35.47,68.49-.09,103.21.31v14L817,1812.92v16.61h34.38c.41,6.85.76,12.65,1.18,19.52l15,1.28v13.57h-65.8c-.42-4.86-.81-9.39-1.19-13.75-7.45-2.25-112.72-2.71-124.46-.52-.32,4.29-.67,8.8-1.13,14.76-28.79.64-57.56-.14-87.45.45V1998l-19.54,1.26v47.81H553.24c-.33-10-.66-20.41-1-31.18l-15.65-1.4v-31.79H501.19v-18l14.68-1.11v-16.44l-15.22-1.56v-46.8c-12-3-23.7,0-36.17-2.13V1865.3l-16.07-1.17v-67.22l-19.88-1.43v-31.3l-15.61-1.27c-.46-4.86-.9-9.64-1.41-15.08l-18.27-1.36c-.44-5.09-.84-9.63-1.31-15.09l-15.11-1.3v-13.67l15-1.21c.47-6,.94-12.06,1.46-18.61l18.29-.89c1.4-21.7.37-43.13.68-65.59l-19.39-1.22v-47.78l-16-1.37c-.39-4.89-.76-9.44-1.2-14.94l-15.58-1.33v-34.64L341,1527.55c-.39-4.82-.76-9.36-1.21-15.06l-15.1-1.23v-30.18h13.47l1.81,15h19.35v-16.28l-18.3-1.16v-13.94l18.2-1.11c.4-4.89.8-9.69,1.25-15.16l15.39-1.24c.89-11.74.44-23.49.2-36.09l-15.56-1.35v-13.51l15.48-1.26c.82-15.85-.07-31.67.54-47.93h14.14c.39,4.67.78,9.21,1.19,14.1,6.42,2.79,12.78,1.82,19.74.68.4-5,.77-9.49,1.18-14.57l15.17-1.64V1313h-36c-.37,5-.72,9.85-1.11,15.12H377v-30.42H427.7c1.59-18.11.75-35.2.55-53.15l-15.5-1.34v-30l15.55-1.52v-31.27h18.11v31.2h17.34c.47-4.95.92-9.75,1.41-14.95l14.78-1.11c.56-5.14,1.08-9.94,1.66-15.28l17.59-1c2.81-10.17.09-20.57,1.9-31.24l15.53-1.79v-34.45l19.26-1.11c.32-5.27.59-9.85.9-15l15.64-1.79v-63.4l16.44-1.75V994.22h17.91c.38,6,.72,11.54,1.14,18.21,12,1.53,23.7.57,36.59.56V977.82h14.41c.49,4.86,1,9.67,1.5,15.08h52.12c.47-4.7,1-9.49,1.5-15.12l18.1-1.1c.42-5,.79-9.6,1.25-15.22l15.12-1.37c.52-5.07,1-9.86,1.61-15.75h35V895.73h51.74c.45-5.73.83-10.51,1.26-15.9h13.49c.47,4.83.95,9.63,1.48,15H853c.36-5.05.7-9.86,1.06-15.07h33.52c.39,5.07.73,9.62,1.14,15.1l15,1.24c.38,5,.73,9.54,1.13,14.82h16.72V860.41h18.08c.39,5.79.78,11.61,1.22,18.08h16.55c.29-6.09.56-11.64.87-18.06h17.27c.41,5.72.82,11.53,1.28,18h16.4V858.92l-14.46-1.54c-1.46-3.61.13-4.92,2.92-5,4.66-.18,9.33-.13,14-.13,10.29,0,20.58,0,32.14,0v26c12.46,2.18,24.11,0,35.94,1.55v13.7l-18.39,1.22c-.36,5-.69,9.6-1.07,14.92L1029.14,911v16.43h36c.41-4.77.83-9.57,1.3-15h29.93c.5,4.6,1,9.39,1.63,14.92h19.4c.4-4.72.78-9.25,1.28-15.1,10.89-.92,21.94-.52,33.33-.21.44,5.43.8,10,1.23,15.28h16.49c.39-4.72.77-9.24,1.24-14.86,10.72-1.47,21.54-.44,33.2-.63.59,5.25,1.12,10.05,1.73,15.55h35.73c.41-4.85.81-9.64,1.25-15h13.59c.56,4.85,1.12,9.65,1.75,15.06h15.92c.49-4.87,1-9.65,1.52-15.1l18.28-1.22c.43-5.07.81-9.59,1.28-15.33h67.45c.47-6,.85-10.77,1.26-16h34v63.94l18.92,1.25,1.32,15c10.92,1.56,21.62.62,32.76.56.51-5.81.91-10.34,1.36-15.46h17.17c.73,9.73.08,19.51.43,30.11l-18.93,1.2v36l18.42,1.52c.32,5.06.61,9.61.94,14.9l15.69,1.44v31.19l19.64,1.17v48h33.54c.37-5,.71-9.52,1.11-14.94h17.67V1147h36v48.32l15.7,1.22c.38,4.7.77,9.49,1.22,15l15.06,1.54c.42,4.93.8,9.46,1.26,14.94l18.31,1.21c.52,5.15,1,9.94,1.56,15.37l15.3,1.08V1313H1683c.39-4.72.79-9.51,1.23-14.86h14.2V1330h36V1362l16.06,1.28v31.6l19.2,1.16v33.51l-17.54.89c-3.27,10.08-.1,20.49-2.17,31.67h-32.7c-3,8-3.53,92-.88,102.93l17.21.86v13.76l-18,1.15v16.43h19.58c.38-4.66.78-9.46,1.23-14.86h14.25v46.16l-15.67,1.71v32.61l15.41,1.23a296.06,296.06,0,0,1-.17,30.44h-35v35.86h-32.54v48.72l-19.32,1.18V1797Zm-248-769.43c.3,6.35.54,11.42.77,16.23h16.25v-16.23Z" transform="translate(0 -852.21)"/><path d="M958.45,2949c-.41-5-.78-9.59-1.23-15.19H906.7c-.66-5.82-1.2-10.6-1.8-15.9l-14.63-1.19c-.52-5.05-1-9.84-1.63-15.71H854.19L853,2885.15l-18.51-1.32c-.39-4.64-.8-9.43-1.28-15l-15-1.2c-.38-4.72-.76-9.51-1.22-15.23l-15.2-1c-.42-5.14-.82-10-1.28-15.69H782.1c-.89-11.71-.36-22.51-.36-34.09h17.57c.29,5.8.57,11.34.9,18.06l15.12,1.4c.52,4.91,1,9.69,1.59,15.05l14.59,1.21c.54,5,1,9.84,1.69,15.81h54.24c.44,5.72.79,10.27,1.22,15.82l15,1.22c.39,4.94.76,9.48,1.21,15.16h34.54c.53,5.81,1,10.58,1.38,15.18,7.77,2,164.91,2.44,176.61.45.36-4.29.74-8.81,1.2-14.23h13.74c.54,4.69,1.1,9.5,1.71,14.84h19.3c.38-4.81.76-9.6,1.23-15.59h31.12c.71-6,1.29-10.78,2-16.38h34.41v-32l19.55-1.56c.4-5,.78-9.79,1.26-15.77h31.48c.37-6.76.67-12.31,1-18.72l18.43-1.45c.48-5,.93-9.81,1.44-15.08h13.67v33.41l-14.88,1.3c-.45,4.78-.89,9.57-1.41,15l-18.59,1.36v31.5h-32c-.64,6-1.14,10.78-1.71,16.16L1222,2885c-.4,5.21-.75,9.75-1.18,15.47h-34.57c-.52,5.9-1,10.69-1.43,16.07l-14.94,1.33c-.46,4.88-.91,9.67-1.48,15.69H1065.06c-.44,5.73-.79,10.27-1.13,14.75C1056.9,2950.23,973.71,2950.83,958.45,2949Z" transform="translate(0 -852.21)"/><path d="M1259.21,1998.64c-.45-6-.8-10.54-1.23-16.2h-70.55l-1.35-19.14-15-1v-12.72c6.56-2.22,48.55-3,69.09-1.07.49,4.55,1,9.33,1.65,15.4,11.34.08,22.53.21,33.73.25,10.92,0,21.84,0,33.45,0,.41,6.64.77,12.46,1.21,19.42h106.56V1998l-18.23,1.24c-.42,5.21-.82,10-1.25,15.3H1364c-.41-5.08-.78-9.64-1.26-15.55-17.35-.83-34.54-.25-51.71-.36C1294.05,1998.55,1277.1,1998.64,1259.21,1998.64Z" transform="translate(0 -852.21)"/><path d="M677.57,2014.4v-30.71H800.66c.33-6.68.62-12.52.94-18.93h85.6V1982H816.85c-.44,5.81-.8,10.59-1.25,16.64H764.34c-.33,5.85-.58,10.42-.88,15.72Z" transform="translate(0 -852.21)"/><path d="M816.22,2498.15H783.39c-2.25-6.88-2.58-35.86-.26-47h33.8c.41-5.59.74-10.11,1.16-15.86l34.75-1c.44-5.39.81-9.92,1.25-15.13h33.28v13.67l-18.52,1.23v31.29c-17.87,2-34.75-.35-52.63,1.56Z" transform="translate(0 -852.21)"/><path d="M1132.54,2232.7v13.93l-15.23,1.15c-.38,6-.75,11.76-1.16,18.3l-18.24,1.15c-.41,5-.79,9.55-1.24,15h-13.84V2232.7Z" transform="translate(0 -852.21)"/><path d="M1259.18,2451.85h34.36v31.34l15.37,1.2v14.08c-10.63.47-21.38.2-33.07.12-.56-5.16-1.07-9.92-1.66-15.37l-15-1.61Z" transform="translate(0 -852.21)"/><path d="M941.4,2266v-18.13l-18.91-1.22v-13.76h53V2266Z" transform="translate(0 -852.21)"/><path d="M867.64,2567h-13.3c-.56-5.14-1.09-9.92-1.68-15.28l-18.38-1.14v-17h33.36Z" transform="translate(0 -852.21)"/><path d="M939.46,2400.08h-17c-.32-6-.61-11.58-1-18l-15.13-1.6v-13.64h33.13Z" transform="translate(0 -852.21)"/><path d="M1206.77,2550.5v-17h33.47v17Z" transform="translate(0 -852.21)"/><path d="M1329.1,2782.72h-17.5v-30.28h17.06C1329.73,2762.15,1329.1,2771.86,1329.1,2782.72Z" transform="translate(0 -852.21)"/><path d="M358,1582.69v29.74H340.85v-29.74Z" transform="translate(0 -852.21)"/><path d="M288,1497.27h14.36v30.22H288.31C287.54,1517.87,288,1508.14,288,1497.27Z" transform="translate(0 -852.21)"/><path d="M1204.18,2433.2h-16.56v-14.09h16.56Z" transform="translate(0 -852.21)"/><path d="M341,1347H357.7v14H341Z" transform="translate(0 -852.21)"/><path d="M1132.46,2383.38v16.82h-13.74v-16.82Z" transform="translate(0 -852.21)"/><path d="M1135,2416.49v-13.78h16.79v13.78Z" transform="translate(0 -852.21)"/><path d="M1223.38,2451.68h17v14.06h-17Z" transform="translate(0 -852.21)"/><path d="M1593.42,1125.78h-16.77v-13.89h16.77Z" transform="translate(0 -852.21)"/><path d="M1714.29,1278.48v16.9h-13.63v-16.9Z" transform="translate(0 -852.21)"/><path d="M1716.63,1311.63V1298.2h17.14v13.43Z" transform="translate(0 -852.21)"/><path d="M602.86,975.52h-13.4V961.43h13.4Z" transform="translate(0 -852.21)"/><path d="M1220.5,2449.58h-13.35v-14.11h13.35Z" transform="translate(0 -852.21)"/><path d="M625.45,944.74h13.4v14.07h-13.4Z" transform="translate(0 -852.21)"/><path d="M1207,1798h13.71v13.52H1207Z" transform="translate(0 -852.21)"/><path d="M1560,1079h13.62v13.66H1560Z" transform="translate(0 -852.21)"/><path d="M903.83,2402.71v13.79H890.28v-13.79Z" transform="translate(0 -852.21)"/><path d="M1331.28,2736.23H1345v13.59h-13.71Z" transform="translate(0 -852.21)"/></svg>