<svg id="Calque_1" data-name="Calque 1" xmlns="http://www.w3.org/2000/svg" viewBox="0 0 2160 3243.58"><path d="M0,3086.1q23-.34,45.91-.69c3.93,0,7.86,0,12.68,0,.49-5.73.91-10.54,1.41-16.36h50.76c.57-5.75,1-10.55,1.57-15.87h49.39c.42,4.93.8,9.45,1.26,14.95,12,1.38,23.75.86,36.1.36.45-5.34.84-9.88,1.28-15l15.12-1.7c.37-4.92.72-9.46,1.14-15.12h34.65c.46-5.78.84-10.57,1.31-16.45h34.55c.52-5.82.94-10.61,1.41-15.86l15.12-1.2c.37-4.94.74-9.73,1.2-15.87H339.7c.4-5.91.71-10.49,1.09-16.19h34.87c.36-6.87.66-12.68,1-18.91l15.31-1.56c.4-5.08.76-9.65,1.19-15l18.4-1.31c.37-5,.71-9.51,1.17-15.53h34.71c.47-6,.83-10.5,1.25-15.77l15.14-1.4c.41-5,.79-9.48,1.27-15.23l34.74-.82c.41-5.47.75-10,1.18-15.66h34.85c.29-5.63.53-10.16.84-16.17h31.67c.53-6.21.93-11,1.38-16.34l18.14-.95c.46-5,.91-9.76,1.46-15.72h34.53c.49-6.91.9-12.72,1.34-19l14.94-1.39c.47-4.95.92-9.74,1.43-15.07h13.73v33.18l-15,1.75v130.61l15.51,1.19v34.77h37.13v-34.52h18.45v50.75l15.92,1.33v13.5l-15.12,1.51v16.3l15,1.2c.47,5,.93,9.77,1.44,15.16l14.77,1.23c.53,4.92,1,9.7,1.62,15.13l18.32,1.22c.36,5,.68,9.59,1.08,15.2l15.33,1.25c.27,5.74.54,11.29.86,17.89,11.41,2.41,23.1-.09,35,1.64.35,4.94.67,9.48,1,13.91,7.1,2.36,38.93,2.91,52.47.84.43-4.55.89-9.35,1.4-14.75h49.38c.52,5,1,9.83,1.57,15.13h88.33c.36-5.27.66-9.85,1-15.67h54.56c.32-6.73.58-12.26.89-19,22.21-1.36,44.38.15,67.47-.9.46-5.21.89-10,1.43-16.19H1186l1.5-16.16h34.31c.63-5.94,1.13-10.73,1.75-16.6h34.42c.46-5.59.83-10.11,1.26-15.31l15.1-1.7c.41-4.9.78-9.44,1.26-15.15h34.61c.45-5.92.82-10.72,1.24-16.11l18.54-1.07c.38-5.16.71-9.71,1.13-15.55h31.72c.35-7,.65-12.77,1-19.16l18.42-1.3c.39-5.12.73-9.67,1.14-15l15.37-1.65c.36-4.77.69-9.29,1.09-14.74l18.68-1.48v-31.32l15.9-1.13c2-10.1.05-20.41,1.34-31.31l15.62-1.55v-31.37l19.21-1.25v-85.1l-18.3-1.08V2720h33.14c.5,4.93,1,9.73,1.53,15.05l18.34,1.19c.34,5.11.65,9.65,1,14.91l15.28,1.37c.39,5,.75,9.55,1.16,14.9,16.93,2,33.85-.35,51,1.39.42,5,.8,9.52,1.26,15.05,23.35,1.72,46.55-.13,70.51,1.07.51,5,1,9.8,1.59,15.66h50.69c.47,6.85.87,12.65,1.35,19.58h34.58c.47,5.62.85,10.12,1.3,15.38,11.28,3.17,23.07-.38,34.83,2.18.36,4.69.71,9.25,1.15,14.95h31.47c.51,5.83.93,10.62,1.46,16.54h34.24c.71,5.91,1.28,10.71,2,16.61h34.2c.55,5.66,1,10.21,1.55,15.84h34.27c.55,5.8,1,10.61,1.54,16.39h50.74c.59,5.72,1.08,10.51,1.72,16.71h50.81c.49,6,.86,10.52,1.3,16,23.49,1.41,46.71-.12,70.67.86.39,6,.77,11.82,1.17,18.06a53,53,0,0,0,7.1,1q29.49.11,59,0a47.73,47.73,0,0,0,5.9-.72V4096H0Z" transform="translate(0 -852.42)"/><path d="M1310.18,1781.45c.57-6.44,1-11,1.42-16h157.58c.36,5,.68,9.5,1.09,15.24l15.17.73c2.54-7.63,3-37.69.91-50l-14.63-1.25v-131.5l14.93-.94V1581l-15.33-1.14v-34.82l-19.07-1.1c-.4-4.91-.76-9.44-1.22-15.07l-15.09-1.18c-.5-5.06-1-9.86-1.51-15.32l-14.84-.87c-.52-4.92-1-9.73-1.61-15.29l-18.53-1.36v-31.13c-12.07-2.33-23.75.11-35.51-1.62-.38-4.93-.74-9.45-1.17-15l-15.06-1.29c-.6-5.06-1.17-9.86-1.79-15.05l-14.81-1.26c-.38-6.11-.74-12-1.15-18.74h-54c-.65-5.64-1.2-10.42-1.83-15.87H1153.26c-.38,4.74-.78,9.55-1.26,15.52H888.73c-.44,7-.82,12.79-1.22,19.12L869,1430.82c-.42,5.09-.8,9.63-1.24,14.87H834.47c-.39-4.67-.78-9.19-1.26-14.89-10.46-1.19-21-.38-32.72-.51-.26,5.63-.58,10.77-.71,15.92-.11,5,0,9.91,0,16.18-24,.94-47.4-.19-71.54.67v31.71l-16,1.46c-.43,5-.84,9.82-1.3,15.21l-18,.92c-2.29,10.11-.09,20.45-1.47,31.37l-15.6,1.46v34.52l-19.65,1.38v80.4l-15.92,1.35c-.25,5.14-.5,10.23-.79,16.3l15.86,1.33V1730l-15.08,1.62v48.86H656.8c.37-4.7.75-9.5,1.18-14.89h53c.41,5.22.77,9.78,1.24,15.77,20.2.09,40.08,0,59.95,0,19.6,0,39.2,0,60.07,0v32.34h35.3c.49,5.6.88,10.11,1.38,15.83l18.27,1.2v17H801.85c-.4-5.74-.8-11.52-1.19-17.12-8.19-2.34-99-2.5-108.57-.11v17.88c-15.35,0-29.88.06-44.4.07-14.24,0-28.48,0-43.79,0V1981.7l-15.78,1.3c-1.91,15.76.11,31.66-1.19,47.92H569.55v-31.33l-16-1.41c-.56-5-1.09-9.77-1.75-15.68H516.7v-84.17L501.24,1897c-.51-4.89-1-9.66-1.63-15.62h-35v-84.3L448,1795.49v-48.06H412.28v-32.27l-19.09-1.33v-16.94l18.39-1.24,1.07-15.1,14-1.11c2.28-7.27,3-66.27.92-81.9l-14.66-1.4c-.48-4.86-.95-9.68-1.49-15.11l-18.22-1.21c-.43-5.15-.8-9.7-1.22-14.79l-15.86-1.64V1529l-15.54-1.3c-.44-4.86-.87-9.66-1.36-15.12l-18.36-1.19v-46.53h16.9c.42,4.65.84,9.43,1.34,15h16.44v-16.42l-14.88-1.06v-13.74l14.89-1.27c.39-4.76.76-9.27,1.22-14.93l15.1-1.31c1.3-12,.86-23.75.28-36.14l-15.13-1.2v-13.77l14.32-1.14c3-10.32-.15-20.76,2.18-32h34.17c.55-5.93,1-10.72,1.52-16.6h34.54V1312.6H429.18v-34.19l18.28-1c1.45-21.6.36-43,.74-65.47l-19-1.22v-13.86l18.54-1.26v-31.25h31.55v31h20.06c2.54-9.79-.08-20.19,1.7-30.83l15.17-1.66c.3-4.93.58-9.49.91-14.91l19-1.21c.68-17-.07-33.85.43-51.07l15.4-1.41c.44-4.85.87-9.65,1.35-15l15.39-1.32c1.14-21.2-.12-42.34.73-64l19-1.19V994.25c17.62-1.39,34.49.24,51.8-1,.42-5.28.78-9.83,1.23-15.58H712c.52-5.93.94-10.72,1.41-16.06L728.7,960c.4-5.07.76-9.63,1.17-14.69L745,943.71c.4-5,.75-9.6,1.19-15.21h34.62c.49-5.77.9-10.57,1.36-16l18.63-1.21V879.73c10.31-.73,19.86-.29,29.36-.37,9.66-.08,19.33,0,29,0h29.73c.38-6.84.7-12.65,1.05-19h13.7c.41,6,.8,11.84,1.24,18.29l15,1.21c.39,4.67.8,9.47,1.28,15h19.9c.35-4.67.72-9.46,1.13-14.9l15.22-1.35c.3-6.17.57-11.72.9-18.38,3.73-.18,7.29-.8,10.74-.43,5.52.61,8.92-1.28,9.65-7.08h28.6l3.23,6.76c7.17-1.56,16.53,5.18,21-6.75h31.25c.47,1,1,2.09,1.54,3.2s1.19,2.26,1.79,3.39l13.83.8v17.16l-15,1.19c-1.14,10.86-.81,21.56-.24,32.84h16.67c.4-4.82.8-9.6,1.25-15H1116c.39,4.77.76,9.28,1.12,13.65,7.36,2.36,24.88,2.69,36.27.63.33-4.3.69-8.83,1.1-14.13h13.89c.45,4.71.89,9.27,1.47,15.29,11.68,0,23.2.09,34.73.1s23.26,0,35.42,0c.65,5.47,1.21,10.29,1.85,15.71h16.29V896.39h15c.34,5,.64,9.56,1,14.77h36.31V880h34.39c.4,4.78.78,9.32,1.15,13.71,7,2.35,38.69,2.93,52.59.92.38-4.57.77-9.38,1.21-14.7h33.38v13.63l-15.11,1.26c-1.17,10.68-.86,21.37-.14,32.75l15.12,1.16c.43,4.85.86,9.65,1.36,15.15l15,1.25c.43,4.78.86,9.55,1.36,15h20.06V928.79h14.51v46.5l-14.85,1.26V993l15,1.19c.33,5.75.67,11.56,1.08,18.56l18.85,1v31.29l16.71,1.55v31.27l15.41,1.23c.43,4.89.81,9.4,1.24,14.36,6.6,2.29,13,1.8,20,.27.37-4.75.72-9.29,1.13-14.49h33.34c.38,4.74.75,9.25,1.21,14.78l15.53,1.56v83.46l15.84,1.49c.38,5,.74,9.52,1.17,15.1l18.35,1c.49,5,1,9.84,1.5,15.29l14.64,1.18c.57,5,1.11,9.73,1.73,15.16l18.67,1.26V1297l17.24.79c.38-6.59.7-12.41,1.11-19.58,16.56-.57,33-.21,49.85-.26v17.93h-34.57v17.46l18.67,1.08v31.48l15.52,1.17c.56,4.9,1.11,9.67,1.74,15.17l18.2,1.26c.4,5.06.76,9.63,1.19,15.22l15.1,1.19v49.56l-15,1.48c-.41,5-.79,9.49-1.24,14.83l-18.47,1.29c-.36,5.13-.69,10-1,15.13l-15.55,1.23v48l-19.25,1c-.26,5.28-.5,10.36-.81,16.65l19,1.13v49.6l-18,1.28v16.42h35.77c1.93-9.89,0-20.21,1.26-31h17.13v46.2l-17,1.1c-2.55,7.32-3,37.63-.7,49.35l17.64,1.19c.24,2.4.58,4.31.6,6.23.06,7.61,0,15.22,0,23.55h-33.87c-.36-4.62-.71-9.16-1.14-14.65h-19.92c-.36,4.74-.7,9.29-1.11,14.7l-15.1,1.39v19.7l15,1.26v14.2h-31.26v17.24l14.74,1.19V1763l-14.71,1.19v33.15H1714v14.42l-14.87,1.43c-.49,5.19-1,10-1.44,15.13l-15.5,1.22c0,11.55,0,22.73,0,33.92,0,10.93,0,21.86,0,33.51l-19.63,1.23v31.41l-16.18,1.3v51l-19.15,1c-.41,4.91-.82,9.71-1.28,15.15l-15.1,1.48c-.37,4.94-.7,9.47-1.1,14.84l-15.62,1.79v31.16H1560c-.38-5-.74-9.5-1.17-15.1l-19.08-1.19c0-11.52,0-22.71,0-33.9,0-10.93,0-21.87,0-33.56l-16.36-1.4V1914.5l-16.05-1v-64.23c-4.16-.35-7-.62-9.88-.81s-5.86-.33-9.37-.52c-.39-6.3-.75-12.11-1.18-18.9h-86.84c-.57-5.77-1-10.56-1.58-15.92h-35.85c-.4,4.78-.78,9.29-1.17,13.81-6.78,2.4-77.84,3.34-102,1.26v-29.85l14.64-1.19c.51-5,1-9.77,1.61-15.68ZM1574.91,1146c10.44,2,12.9,1.88,19.77-.69v-34.8h-19.77Z" transform="translate(0 -852.42)"/><path d="M1293.84,2836.57c-.45,5.44-.83,10-1.24,14.91l-18.26.86c-.41,5.11-.78,9.89-1.25,15.87h-31.34c-.48,5.75-.87,10.31-1.32,15.61l-18.16,1.26c-.6,5.27-1.15,10.07-1.82,16H1186.1c-.45,5.64-.81,10.2-1.27,16h-67.42c-.46,5.73-.82,10.25-1.17,14.67-7,2.27-161,2.92-173.91.7-.37-4.35-.75-8.87-1.17-13.85-11.51-3.14-23.31.45-34.84-2.33-.39-4.81-.76-9.38-1.2-14.85L890,2900.31c-.37-5-.7-9.58-1.11-15.1-11.52-1.87-23.16.18-34.8-1.26-.43-5.21-.79-9.74-1.23-15.1l-18.39-1.11c-.42-4.93-.8-9.46-1.29-15.15l-14.91-1.23c-.5-5-1-9.84-1.51-15.33l-14.89-.84c-.43-4.92-.86-9.7-1.35-15.23l-18.31-1.4v-33.41h33.51c.25,11.51.5,22.91.77,34.75l15.13,1.14c.42,4.9.81,9.41,1.32,15.36,18.14,1.15,36.3-.16,54.52.78.43,5.57.79,10.15,1.2,15.43l14.91,1.23c.4,4.69.81,9.49,1.31,15.4h34.5c.56,5.82,1,10.6,1.58,16.48h67.26c.42,5.64.77,10.18,1.22,16.13a339,339,0,0,0,36.06,0c.39-5.18.73-9.7,1.14-15.06h33.54c.38,4.93.74,9.49,1.15,14.74h16.47c.41-4.89.79-9.41,1.26-15,11.56-1.35,23.12-.43,34.62-.59,12-.16,24,0,36,0h35.24c3-10.72.34-21.08,2-32.48h34.82c.35-5.91.63-10.48,1-15.77l15.25-1.57c.42-4.85.81-9.38,1.27-14.84l15.18-1.42c.32-6,.62-11.51,1-18.25l18.44-1.25c.44-4.9.88-9.69,1.37-15l15-1.31c.43-4.89.86-9.7,1.33-15.09h17.14c1.13,9.78.66,19.77.21,30.2l-18.75,1.08v34.3Z" transform="translate(0 -852.42)"/><path d="M1418.12,1947.76h31.39v32.84c-6.74,2.26-37.6,2.71-50.22.49V1947.2h-36.68c-.4,4.77-.79,9.55-1.23,14.86l-15.6,1.65v16.76c-8.11,2.4-40.26,2.7-50.65.63-.34-5.39-.68-10.94-1.11-17.67l-18.31-1.07V1916h85.41c.51,4.84,1,9.64,1.65,15.69h54C1417.28,1937.46,1417.65,1942,1418.12,1947.76Z" transform="translate(0 -852.42)"/><path d="M729.94,1932.2H831.65v49.52h-65.9c-.32-6.1-.62-11.66-.91-17-7.52-2.33-41.42-2.71-52.54-.59v19.52h31.21V1998h-66V1964.8l15.24-1.12c.41-5,.8-9.77,1.28-15.62h34.47C729,1942.51,729.4,1938,729.94,1932.2Z" transform="translate(0 -852.42)"/><path d="M833.29,2434.75c.41-6.25.69-10.52,1.05-15.91H869c.5-5.84.92-10.64,1.38-16h33.33v13.52l-15.33,1.84v31.08l-19.3,1.18c-.43,4.89-.85,9.69-1.36,15.57H833.12c-.51,5.81-.93,10.59-1.39,15.88h-49.5v-13.57L801,2467v-32.26Z" transform="translate(0 -852.42)"/><path d="M1099.46,2216.27h52.64c.89,10.08.32,19.87.43,30.35l-18.69,1.24c-.39,5.81-.77,11.59-1.2,18.1h-33.49c-.42-5.75-.85-11.56-1.31-17.81l-15.2-1.66v-13.66l14.9-1.13C1098.18,2226.54,1098.81,2221.49,1099.46,2216.27Z" transform="translate(0 -852.42)"/><path d="M1294.13,2450.77l14.69,1.05c.52,5,1,9.78,1.57,15.26l18.24,1.2v13.57h-33.4c-.44-5.09-.83-9.64-1.29-14.93l-18.29-1.25-1.37-15.22h-31.23v-13.73c6.39-2.29,35.77-2.88,49.43-.79C1293,2440.55,1293.53,2445.36,1294.13,2450.77Z" transform="translate(0 -852.42)"/><path d="M978.24,2216.3H991.7c.48,5,.93,9.84,1.46,15.39l14.84.92v13.92H942.51c-.28-2.44-.67-4.66-.74-6.9-.06-2,.23-3.94.47-7.37H977C977.4,2226.89,977.78,2222.11,978.24,2216.3Z" transform="translate(0 -852.42)"/><path d="M305.1,1481.11h15.73c2.07,7.36,2.33,36.15.37,46.56H305.1Z" transform="translate(0 -852.42)"/><path d="M1331.09,2766.1v-29.78h30.3v13.49l-15.08,1.22c-.44,4.89-.87,9.66-1.36,15.07Z" transform="translate(0 -852.42)"/><path d="M1223.25,2531.1v-13.83h33.33v13.83Z" transform="translate(0 -852.42)"/><path d="M887.47,2517.28V2531h-33.4v-13.75Z" transform="translate(0 -852.42)"/><path d="M360.47,1330.52h13.68v30.34H360.47Z" transform="translate(0 -852.42)"/><path d="M360.56,1566.22h13.57v30H360.56Z" transform="translate(0 -852.42)"/><path d="M1733.41,1713.93h-16.52v-17h16.52Z" transform="translate(0 -852.42)"/><path d="M622.82,961.73v13.58H605.61V961.73Z" transform="translate(0 -852.42)"/><path d="M1223.24,2432.88V2419.2h16.87v13.68Z" transform="translate(0 -852.42)"/><path d="M956.48,857.55H906.67c-1.17-4.66,1.43-5.19,4.3-5.13q22.18.48,44.38,1.22C955.63,853.64,955.86,855.32,956.48,857.55Z" transform="translate(0 -852.42)"/><path d="M939.77,2366.35v14.24H922.59v-13.05C927.68,2364.91,933.18,2366.72,939.77,2366.35Z" transform="translate(0 -852.42)"/><path d="M1168.51,2400.19h-13.93v-16.82h13.93Z" transform="translate(0 -852.42)"/><path d="M1752.7,1314.45h17v13.62h-17Z" transform="translate(0 -852.42)"/><path d="M184.09,3050.66v-13.89h13.52v13.89Z" transform="translate(0 -852.42)"/><path d="M956.06,2350.65v13.25h-13.7v-13.25Z" transform="translate(0 -852.42)"/></svg>