<svg id="Calque_1" data-name="Calque 1" xmlns="http://www.w3.org/2000/svg" viewBox="0 0 2160 3243.77"><path d="M0,3104.05H58.92c.28-6,.55-11.78.87-18.68H94.47c.56-5.88,1-10.69,1.52-16h65.57c.54,5.13,1,9.93,1.61,15.32h19.65v-16.47l-18.41-1.32V3053.2h33.28c.4,4.85.78,9.37,1.23,14.75h16.32c.29-2.57.6-5.11.85-7.66.23-2.23.39-4.47.62-7.23l18.39-1.14c.42-5.28.79-9.83,1.24-15.45H271c.49-5.77.9-10.57,1.36-15.94l15-1.24c.4-4.87.79-9.66,1.27-15.53h34.57c.47-5.58.85-10.11,1.36-16.08l34.78-.76c.39-5.28.71-9.81,1.11-15.28l15.32-1.62c.35-6,.7-11.81,1.07-18.1l15.05-1.16c.46-5,.9-9.78,1.4-15.27l18.37-1.3c.38-5.1.71-9.65,1.12-15.31h34.69c.47-5.81.86-10.59,1.34-16.6h31.06c.71-6,1.29-10.78,2-16.65h34.29c.49-5.64.89-10.19,1.38-15.89H552c.47-5.92.86-10.74,1.27-16l15.23-1.05c.37-4.95.74-9.76,1.16-15.35l18.12-1.2,1.79-15.62h34.29c.45-6.55.85-12.33,1.31-18.94l15-1.51c.46-5,.89-9.54,1.38-14.8h13.85c1.45,10.39.38,21.21.61,33L640,2820v31.18l-16.19,1.28c-1.1,21.44-.36,42.87-.43,65.34l16.07,1.38v50.79l16,1.52c.35,4.81.67,9.34,1,13.76,6.91,2.53,24.23,3,36.47.76v-33.87h18.63v83.38l16,1.24v31.18l16,1.72c.37,4.88.71,9.44,1.14,15.12h34.87c.34,6.82.63,12.59,1,19.43l18.49,1.12,1.41,15.34h68.65c.37-4.94.71-9.46,1-13.88,7.12-2.38,38.46-2.84,49.8-.73.37,4.44.74,9,1.11,13.44,7.47,2.3,61.68,2.66,72.24.44.31-4.35.63-8.9,1-14.84,12-.09,23.84-.2,35.68-.24,11.54,0,23.09,0,35.22,0,.37-7,.66-12.51,1-19.28h67.41c.46-5.75.81-10.29,1.28-16.18,16.64-1.28,33.49.16,50.8-.81.63-5.49,1.18-10.27,1.85-16.19H1222c.47-5.69.85-10.23,1.29-15.58l18.36-1.19c.39-4.9.76-9.43,1.23-15.27H1274c.63-6,1.14-10.77,1.76-16.65H1310c.59-5.92,1.07-10.76,1.59-16l18.28-1c.44-5.44.82-10,1.29-15.8h31.47c.42-6.75.76-12.3,1.17-19l18.2-1.19c.46-5,.9-9.83,1.38-15.14l15.62-1.7v-31.07l19.44-1.31V2870.3l15.85-1.23c2.36-10.37-.33-21.09,1.64-31.75l14.87-1.15c.49-5.05,1-9.83,1.47-15.15l17.29-1c2.85-6.64,1.39-13,1-20.39h-18.23v-79.77H1469c.49,4.82,1,9.62,1.53,15.15l14.93,1.14c.41,4.75.83,9.54,1.32,15l18.31,1.26c.4,4.92.78,9.46,1.27,15.34h51c.49,5.81.88,10.34,1.38,16.31,22.08,1.1,44.24-.09,66.89.69.61,5.31,1.16,10.08,1.84,16.07h54.23c.36,6.83.66,12.39,1,19.14h31.4c.41,5.66.73,10.18,1.13,15.73,11.26,2.72,23-.33,34.87,1.88.37,4.65.72,9.2,1.16,14.83,11.36,2.13,23-.25,34.76,1.45.4,5,.77,9.49,1.26,15.46H1822c.46,6,.82,10.5,1.25,16.17h34.42c.6,5.85,1.08,10.64,1.68,16.5h31.26c.51,5.67.93,10.22,1.43,15.79,8.86,1.44,17.8.56,26.66.71s17.88,0,27.5,0c.38,5.22.71,9.74,1.13,15.43,22.39,2.19,44.89-.16,67.57,1.32.45,5.33.83,9.87,1.3,15.45,29,1.6,57.81-.22,87.06,1,.36,6.17.68,11.7,1,17.06,7.25,2.37,41,3,55.78,1.22V4096H0Z" transform="translate(0 -852.23)"/><path d="M1449.72,1847.74h-14c-.33-6.08-.63-11.63-.92-17-7.14-2.44-125-3.25-140.85-.91-.38,5.48-.78,11.27-1.24,17.76h-50v-33l15.2-1.45c.41-4.89.78-9.41,1.22-14.62l15.11-1.74c.39-4.88.76-9.43,1.23-15.36,35.34-.27,70.47.06,106.45-.19.52-5.59,1-10.38,1.46-15.77h66.11c.41,5.18.77,9.76,1.19,15.09h18.67c2.13-7.12,2.76-186,.55-199.64l-18.2-1.06V1545l-16-1.11c-.4-5.31-.76-10.13-1.14-15.17l-15.2-1.19c-.4-4.78-.79-9.33-1.3-15.27l-18-.81c-.54-5.15-1-10-1.62-15.44l-14.89-1c-.5-4.84-1-9.64-1.56-15.2l-18.11-1.26c-.4-5.12-.75-9.67-1.18-15.16l-15.07-1.26c-.6-5.16-1.15-10-1.75-15.13l-14.7-1.3c-.43-4.82-.84-9.37-1.34-15l-18.36-1.13c-.41-6.07-.81-11.91-1.29-19h-67.31c-.44-5.74-.79-10.28-1.13-14.7-7.19-2.15-75.3-2.72-88.51-.69-.37,4.31-.76,8.85-1.27,14.76-17.53,1-35.36-.23-54.14.74-.41,6.32-.78,12.12-1.21,18.64H994.48c-.41-6.19-.8-12-1.22-18.39H940.87c-.35,5.89-.69,11.7-1.12,18.91-28.85.61-57.64-.1-86.91.4l-1.28,15.28H818.25c-.39-4.55-.78-9.06-1.27-14.8l-16.44-.78c-.46,5.48-.86,10.26-1.33,15.75l-18.36,1.2c-.4,4.94-.76,9.47-1.24,15.49H744.86c-.44,6-.77,10.49-1.2,16.36H712v32.39l-19.84,1.29v31.22l-16,1.33v34.62l-19.54,1.27v47.69l-16.81,1.65c-.28,19.36-.1,38.58-.13,57.78s0,38.53,0,58.37l-15.82,1.43c-.94,16.14-.44,32.22-.3,49h16.78c.42-5.08.8-9.63,1.22-14.86H743.66c.36,4.89.7,9.44,1.14,15.19,28.89,1.13,57.7-.26,87.39.81v31.46l19.09,1.19v17.51H656.89c-.48,5.56-.87,10.08-1.38,16-9.54,1-19.35.25-30,.49-.58-5.32-1.1-10.1-1.7-15.59H604.4c-.45,5.09-.86,9.9-1.3,15l-15.53,1.26c-.48,25.18-.15,50-.21,74.87-.06,24.57,0,49.14,0,74.34l-18.65,1.19c-2.18,10.13-.11,20.46-1.36,31.3h-14.5v-47.48L537,1998c-.42-4.89-.81-9.45-1.27-14.83H516.24c-.47,4.75-.94,9.55-1.46,14.88H501.15v-33.27l14.67-1.18c1.93-10.82.58-21.53.79-32.72l-16.09-1.4v-31.75H464.75v-48.61l-16-1.36v-17l14.95-1.26v-16.46l-15.06-1.37c-.36-5-.68-9.56-1.06-14.87l-19.07-1.34v-31.31l-16-1.31v-31.56l-19.24-1.13v-33.45l18.26-1.19v-81.7l-19.06-1.46v-47.91H360.32c-.28-12.27-.54-23.7-.81-35.71l-18.64-1.26c-.39-5.06-.75-9.59-1.17-15.06l-15.19-1.18v-30.07l15.11-1.48c.37-4.79.73-9.33,1.18-15l18.35-1c.41-4.89.82-9.68,1.33-15.72h31.35v-37H360.67v-14.64l15.25-1.38v-32h35.92v-32.64h35.48V1312.7H413v-14.51l15.46-1.36c.33-33.45,0-66.58.22-100.25l18.79-.94c.41-4.91.8-9.69,1.25-15.18h13.67c.49,4.57,1,9.35,1.61,14.87h16.17c.42-5,.81-9.51,1.28-15l18.32-1.12c.41-4.93.79-9.44,1.29-15.28l34.78-.79v-16.83l-18.25-1v-33.45l18.53-1.32V1079.2l16.09-1.41V1046.6l16.57-1.59V994.37h18.08c.35,5.81.71,11.65,1.11,18.14h16.31c.42-5.9.83-11.69,1.34-18.68H640c.63-6,1.14-10.75,1.71-16h13.63c.49,4.89,1,9.7,1.49,15.08h55.7V961.56l16-1.48c.52-5.06,1-9.85,1.62-15.74h35.06v-32l15.73-1.18c.45-4.94.88-9.74,1.4-15.54H833c.52-5.77,1-10.56,1.42-15.85h69.38v31.11h37.72v-31l15.8-1.32c.34-6,.68-11.82,1-18.28H975.7c.33,6,.64,11.57,1,18H993V859l-14.57-1.74c-.91-4.89,2-5,4.72-5,14.32,0,28.63,0,43.43,0l3.54,6.92,13.91.78c.42,5.94.84,11.74,1.33,18.62l18.3,1.08v13.73l-18.13,1.31c-.44,4.79-.86,9.34-1.37,15l-15,1.24V927.3h16.28c.38-4.71.76-9.24,1.23-15l18.37-1.07c.41-4.86.82-9.65,1.28-15.06H1080l1.6,15.25h86.54c.67,5.72,1.24,10.53,1.88,16h16c.46-4.82.93-9.61,1.45-15h16.84c.5,4.61,1,9.4,1.7,15.63,17.24.05,34.34.26,52-.2.45-5.53.81-10.07,1.24-15.33h14c.36,5,.7,9.5,1.09,14.8h20.09V895.65h87.83c.4-5.82.73-10.62,1.09-15.92h34v80.34c17.64,1.58,34.52-.11,51.84,1v30.37l-18,1.08V1013h34.37c.44,5.6.81,10.14,1.27,16l18.9,1v47.7l16.23,1.33v31.45H1539c.5-5.1,1-9.9,1.5-15.09l18.29-1.39c.44-5.25.82-9.81,1.26-14.94h33.32v30.15l-18.36,1.1c-.42,4.89-.83,9.69-1.31,15.14l-14.73,1.22v19.69c10.9,2.27,22.58-.37,34.41,1.53.38,4.82.74,9.37,1.18,14.91l15.69,1.37v31.3l15.48,1.08c.5,5,1,9.76,1.53,15.2l18.32,1.32c.41,5,.79,9.53,1.24,14.8l15,1.68c.39,4.87.76,9.45,1.21,15.17l19,1v51.08l15.59,1.34c.48,4.85,1,9.64,1.48,15l15.35,1.22v31.46l19.2,1.18c.43,4.93.82,9.44,1.25,14.42,11.45,3.35,23.28-.4,34.94,2.44v81.77l-18.5,1.35-1.28,15.76h-34.6v102.65H1750v79.93l-14.88,1.08v16.87h34.4v14.43l-18.22,1.32-1.14,15.15h-13.59c-.5-5-1-9.84-1.52-15.18h-19.63v16.8h18v18l-18,1.21c-.43,5-.83,9.52-1.32,15.19l-32.09,1.06v96.9l-19.46,1.35v100.38h-35.76c-.91,23.22,0,45.4-.56,68.16l-15.47,1.44c-.37,5-.69,9.59-1.07,14.82l-15.19,1.79c-.36,4.83-.69,9.39-1.08,14.76l-18.87,1.31v31.31l-15.83,1.33c-.4,4.75-.8,9.53-1.25,14.95h-17.37c-.83-10.24-.28-20.77-.37-31.27s0-21.19,0-32.25l-16.26-1.93v-67.09l-16.27-1.38v-63.83l-19.57-1.43v-31.39l-15.87-1.32c-.37-5.66-.74-11.46-1.14-17.55-6.62-2.77-13-1.35-20-1Zm265.7-250.54H1735V1581h-19.54ZM568.22,1146.48v-19.75H552.06v19.75Z" transform="translate(0 -852.23)"/><path d="M832.17,2820.38v32.13c24.16,1.9,47.66-.19,71.56,1.22.38,5.14.71,9.68,1.13,15.27l15.15,1.1c.36,4.89.7,9.41,1.09,14.74,11.42,2.49,23.12-.26,34.8,1.69.41,5,.78,9.5,1.13,13.86,7.6,2.2,148.76,2.66,160.46.49.33-4.29.67-8.82,1.07-14.18h13.91c.42,4.59.83,9.15,1.33,14.59h19.57c.37-4.62.75-9.4,1.23-15.44H1186c.47-5.65.84-10.18,1.29-15.56l18.59-1.27c.22-4.91.44-9.44.69-14.94l15.46-1.68c.41-5.05.79-9.6,1.23-15l18.36-1.31c.38-5,.71-9.54,1.15-15.4,5.17-.08,10.36-.2,15.55-.24,4.94,0,9.88,0,15.86,0,.45-6.65.85-12.45,1.3-19l18.93-1.37v-31.31l15.61-1.24c.54-5,1.06-9.84,1.64-15.16h17.37c.32,15.28.17,30.4.08,46.39l-19,1.41c-.33,6.13-.65,11.94-1,18.23l-15.33,1.44c-.35,10.47-.69,20.9-1,31.56l-18.38.86c-.42,4.95-.8,9.48-1.3,15.38l-31.36,1c-.5,5.39-.92,10-1.4,15.16L1222,2885c-.4,5.14-.75,9.67-1.2,15.41h-34.53c-.53,5.91-1,10.69-1.45,16.13l-14.9,1.3c-.47,4.84-.93,9.63-1.48,15.42H1045.57c-.47,5.77-.86,10.58-1.31,16H958.6c-.4-4.66-.82-9.44-1.34-15.37H922.73c-.5-5.61-.89-10.11-1.38-15.64-9.87-2.39-20.25,0-31.08-1.62-.49-4.84-1-9.61-1.56-15.49H854.39c-.58-5.83-1-10.62-1.59-16.12l-18.41-1.18c-.38-5-.72-9.52-1.14-15l-15-1.27c-.4-5-.76-9.52-1.21-15.11l-15.14-1.11c-.45-5-.89-9.77-1.39-15.26l-18.32-1.29v-33.12h17.07l1.19,18.66Z" transform="translate(0 -852.23)"/><path d="M1274.3,1963.3l-15.13-1.12v-46.41h121.52c.55,5,1.07,9.84,1.72,15.74h34.28c.52,5.65.94,10.19,1.45,15.61l15.07,1.29c.38,4.89.73,9.43,1.16,15.06l15.08,1.22v17l-15,1.21c-.4,5-.79,9.8-1.23,15.11h-33.84v-49.57c-7.89-2.54-40.35-3-53.42-.9V1982c-24,.67-46.71.31-70.31.21C1275.23,1975.85,1274.8,1970,1274.3,1963.3Zm19.66-32.55V1947h16v-16.29Z" transform="translate(0 -852.23)"/><path d="M677.64,1947.62h34.17c.69-5.57,1.28-10.36,1.92-15.56h65.76c.41,4.9.78,9.42,1.24,14.84h19.88c.37-4.81.72-9.37,1.12-14.61h30V1962l-15.17,1.52c-.28,6-.54,11.55-.84,18.09L800.52,1983c-.41,4.86-.8,9.37-1.29,15.23-10.89.9-21.93.34-33.32.38-.46-5.55-.83-10.1-1.29-15.65l-18.77-1.12v-34.62H728.74c-.29,2.67-.6,5.21-.85,7.75-.22,2.26-.37,4.51-.58,7.17l-15.09,1.27c-1.39,12-.46,23.72-.57,36.35H743.3v14.79H677.62c-.43-4.65-.88-9.44-1.42-15.29l-18.16-1v-33.55l18-1Z" transform="translate(0 -852.23)"/><path d="M782.3,2451h34.45c.54-5.52,1-10.33,1.53-15.5l14.72-1.4c.51-5,1-9.76,1.57-15.05h52.74V2433l-18.77,1.14v31.47c-17.58,1.49-34.45-.26-51.7,1.1-.43,5.14-.81,9.66-1.25,15l-15.21,1.43c-.35,4.94-.66,9.46-1,14.79h-17Z" transform="translate(0 -852.23)"/><path d="M1309.05,2468.31V2498h-34v-31.07l-15.5-1.28c-.57-4.92-1.12-9.72-1.74-15.15h-15.93c-.49,4.85-1,9.64-1.51,15h-16.86c-.48-4.64-1-9.42-1.55-15.1l-15.06-1.1v-13.85h66.19c.36,4.83.69,9.36,1.11,15l18.63,1.36c.35,5.08.67,9.64,1,15Z" transform="translate(0 -852.23)"/><path d="M992,2232.92v13.59l-15.21,1.36v34.41H958.65c-.47-4.76-.95-9.55-1.49-15l-14.78-1.06c-.41-5.83-.82-11.64-1.29-18.38l-18.46-1.11v-12.93C929.4,2231.77,973.32,2231.14,992,2232.92Z" transform="translate(0 -852.23)"/><path d="M1082.19,2232.73h69.93V2247h-34.93v35.26h-18c-.46-4.86-.91-9.65-1.42-15.09l-15.43-1C1082,2255.3,1082.22,2244.54,1082.19,2232.73Z" transform="translate(0 -852.23)"/><path d="M1206.8,2550.36v-16.73l15-1.54c.58-5.12,1.12-9.9,1.7-15.08h16.78v33.35Z" transform="translate(0 -852.23)"/><path d="M1750,1344.44h-14V1313l-19.26-1.31v-13.55H1750Z" transform="translate(0 -852.23)"/><path d="M854.08,2551.26v-17.81H887.6v16.65C876.89,2552.5,865.85,2550.48,854.08,2551.26Z" transform="translate(0 -852.23)"/><path d="M956,2382.83V2400H922.64v-17C933.54,2382.11,944.56,2382.48,956,2382.83Z" transform="translate(0 -852.23)"/><path d="M922.6,860.1h16.82V877H922.6Z" transform="translate(0 -852.23)"/><path d="M517.53,2000.33h16.92c.22,4.46.44,8.81.71,14H517.53Z" transform="translate(0 -852.23)"/><path d="M710.92,942.58H694V928.79h16.93Z" transform="translate(0 -852.23)"/><path d="M1132.27,2400.31h-13.34v-17.1h13.34Z" transform="translate(0 -852.23)"/><path d="M1713.92,1295.71h-13.26v-17.23h13.26Z" transform="translate(0 -852.23)"/><path d="M321.85,1527.61H305V1514h16.87Z" transform="translate(0 -852.23)"/><path d="M358.06,1582.54v13.36H340.9v-13.36Z" transform="translate(0 -852.23)"/><path d="M798.93,1929.83H782.5v-13.94h16.43Z" transform="translate(0 -852.23)"/><path d="M903.53,1981.92H890.2v-17.17h13.33Z" transform="translate(0 -852.23)"/><path d="M390.59,1311.86H376.87v-13.52h13.72Z" transform="translate(0 -852.23)"/><path d="M890.06,2402.6h13.62v13.7H890.06Z" transform="translate(0 -852.23)"/><path d="M1345,2749.82h-13.75v-13.43H1345Z" transform="translate(0 -852.23)"/><path d="M766,879.69h13.48v13.47H766Z" transform="translate(0 -852.23)"/></svg>